<?xml version='1.0' encoding='utf-8'?>
<svg xmlns="http://www.w3.org/2000/svg" xmlns:xlink="http://www.w3.org/1999/xlink" enable-background="new 0 0 155 118" version="1.1" viewBox="0 0 155 118">
<symbol id="ak" viewBox="-19.75 -22.55 39.5 45.1">
	<g clip-rule="evenodd" fill-rule="evenodd">
				<path d="m-4.05-19.8c-2.4 0.6-4.333 2.083-5.8 4.45-1.066 1.7-0.95 2.9 0.35 3.6 0.733 0.4 1.683 0.6 2.85 0.6 0.267 0 1.95-0.05 5.05-0.15 2.8-0.633 3.783-2.317 2.95-5.05-0.9-2.967-2.7-4.117-5.4-3.45z" fill="#414E20"/>
				<path d="m6.6 11.15c-0.167 0.1-0.35 0.2-0.55 0.3 0.233-0.7 0.434-1.45 0.6-2.25-0.133-1.633-0.583-3.917-1.35-6.85-1-3.867-2.55-8.8-4.65-14.8l-0.35-2.1c0.267-1.034 1.583-0.5 3.95 1.6 3.633 5.367 5.933 9.867 6.9 13.5 0.9 3.367 0.667 6.133-0.7 8.3-1.067 1.767-2.6 2.95-4.6 3.55 0.4-0.167 0.65-0.583 0.75-1.25zm-2.25 0.8c-0.667-1.434-1.333-3.25-2-5.45-1.8-5.8-2.8-11.4-3-16.8 1.367 2.7 2.767 7.667 4.2 14.9 0.967 4.9 1.233 7.35 0.8 7.35zm9.75-9.3c-0.067-2.867-0.8-5.967-2.2-9.3-1.667-3.733-3.65-6.583-5.95-8.55-0.733-0.5-1.767-1-3.1-1.5-2.7-0.966-5.283-1.183-7.75-0.65-2.367 0.434-4.25 1.733-5.65 3.9l-1.2 2.8c-0.833 3.333-1.067 7.1-0.7 11.3 0.4 3.6 1.233 6.5 2.5 8.7 1.4 2.367 3.367 3.85 5.9 4.45 2.466 0.6 5.733 0.383 9.8-0.65 2.767-0.7 4.833-1.883 6.2-3.55 1.433-1.7 2.15-4.017 2.15-6.95zm-15.8 11l-2.55-0.45c-1.833-0.6-3.217-1.517-4.15-2.75-1.2-1.633-1.983-4.034-2.35-7.2-0.367-3.367-0.3-7.85 0.2-13.45 0.867-3.7 2.667-5.316 5.4-4.85 1 0.133 1.816 0.6 2.45 1.4 0.633 0.8 0.85 1.566 0.65 2.3-0.5 2.4-0.284 6.633 0.65 12.7 0.833 5.533 2.333 9.25 4.5 11.15-1.3 0.867-2.9 1.25-4.8 1.15z" fill="#B2C271"/>
				<path d="m6.65 9.2c0.267-1.4 0.45-2.967 0.55-4.7 0.433-7.467-1.167-13.25-4.8-17.35 1.1 0.934 2.417 2.867 3.95 5.8 1.433 2.8 2.45 5.45 3.05 7.95 1.2 5.033 0.267 8.45-2.8 10.25-0.1 0.667-0.35 1.083-0.75 1.25 2-0.6 3.533-1.783 4.6-3.55 1.367-2.167 1.6-4.934 0.7-8.3-0.967-3.633-3.267-8.133-6.9-13.5-2.367-2.1-3.683-2.633-3.95-1.6l0.35 2.1c2.1 6 3.65 10.934 4.65 14.8 0.767 2.933 1.217 5.217 1.35 6.85zm-2.3 2.75c0.433 0 0.167-2.45-0.8-7.35-1.433-7.233-2.833-12.2-4.2-14.9 0.2 5.4 1.2 11 3 16.8 0.667 2.2 1.333 4.017 2 5.45zm-6.05 1.7c1.9 0.1 3.5-0.283 4.8-1.15-2.167-1.9-3.667-5.617-4.5-11.15-0.934-6.067-1.15-10.3-0.65-12.7 0.2-0.733-0.017-1.5-0.65-2.3s-1.45-1.267-2.45-1.4c-2.733-0.467-4.533 1.15-5.4 4.85-0.5 5.6-0.567 10.083-0.2 13.45 0.367 3.167 1.15 5.567 2.35 7.2 0.933 1.233 2.316 2.15 4.15 2.75l2.55 0.45zm-0.15-3.1c-1.2-1.667-2.117-4.217-2.75-7.65-0.667-3.667-1.066-8.683-1.2-15.05 0.433-1.233 0.833-1.65 1.2-1.25 0.333 5.7 0.883 10.733 1.65 15.1 1.034 6.367 2.467 10.083 4.3 11.15-1.1-0.167-2.167-0.933-3.2-2.3zm-4 0.8c-1.5-1.434-2.5-3.733-3-6.9-0.533-3.434-0.533-8.117 0-14.05l0.55-1.65c0.367 4.633 1 9.3 1.9 14 1.233 6 2.85 9.5 4.85 10.5-1.6-0.067-3.033-0.7-4.3-1.9z" fill="#8B9C6A"/>
				<path d="m6.6 11.15c3.066-1.8 4-5.217 2.8-10.25-0.6-2.5-1.617-5.15-3.05-7.95-1.533-2.934-2.85-4.867-3.95-5.8 3.633 4.1 5.233 9.883 4.8 17.35-0.1 1.733-0.283 3.3-0.55 4.7-0.167 0.8-0.367 1.55-0.6 2.25 0.2-0.1 0.383-0.2 0.55-0.3z" fill="#DCEAA9"/>
				<path d="m-5.85 11.35c1.267 1.2 2.7 1.833 4.3 1.9-2-1-3.617-4.5-4.85-10.5-0.9-4.7-1.533-9.367-1.9-14l-0.55 1.65c-0.533 5.934-0.533 10.617 0 14.05 0.5 3.167 1.5 5.467 3 6.9z" fill="#414E20"/>
				<path d="m-1.85 10.55c1.033 1.367 2.1 2.133 3.2 2.3-1.833-1.067-3.267-4.783-4.3-11.15-0.767-4.367-1.317-9.4-1.65-15.1-0.367-0.4-0.767 0.017-1.2 1.25 0.133 6.367 0.533 11.383 1.2 15.05 0.633 3.433 1.55 5.983 2.75 7.65z" fill="#5C6E37"/>
				<path d="m1.05 13.2c-0.2-1.4-0.483-1.833-0.85-1.3l-0.5 1.25 0.35 9.4c0.967-4.1 1.3-7.217 1-9.35zm7.1-5.6c-0.8-2.067-1.767-3.417-2.9-4.05-0.667-0.333-1.033-0.3-1.1 0.1-0.067 0.267-0.05 0.533 0.05 0.8l3.95 3.15zm-2.8 3l-0.3 1.15 1.8 8.4c0.367-3.767 0.217-6.6-0.45-8.5-0.433-1.267-0.783-1.617-1.05-1.05zm3.75 0.25l8.1 2.7c-2.967-2.167-5.5-3.483-7.6-3.95-1.267-0.267-1.717-0.133-1.35 0.4 0.1 0.133 0.383 0.417 0.85 0.85zm10.65-0.5c-2.533-2.867-4.733-4.684-6.6-5.45-1.2-0.566-1.683-0.55-1.45 0.05 0.1 0.267 0.316 0.6 0.65 1l7.4 4.4zm-8.65-9.9l8.05-2.9c-3.8 0.167-6.6 0.684-8.4 1.55-1.167 0.567-1.45 0.95-0.85 1.15 0.267 0.133 0.667 0.2 1.2 0.2zm-11-7.65l-3.85-1 1 1.05c0.8 0.7 1.533 1.083 2.2 1.15 0.667 0 0.966-0.2 0.9-0.6l-0.25-0.6zm2.1-4.2l1.2-11.15c-1.6 4.5-2.433 8.133-2.5 10.9-0.033 1.667 0.167 2.2 0.6 1.6l0.7-1.35zm3.8 7c1.9-1.934 4.033-4.983 6.4-9.15l-7.2 8.55c-0.333 0.567-0.55 1.033-0.65 1.4-0.2 0.7 0.283 0.433 1.45-0.8zm-25.75 12.15c4.2-0.2 7.283-0.767 9.25-1.7 1.3-0.6 1.633-1 1-1.2l-1.3-0.1-8.95 3zm5.2-5c2.7 0.467 4.667 0.617 5.9 0.45 1.4-0.133 1.85-0.4 1.35-0.8l-1.2-0.55-9.45 0.15 3.4 0.75zm6.35 6.25l-1.15 0.6-5.85 7.45c3.434-2.5 5.7-4.667 6.8-6.5 0.767-1.2 0.833-1.717 0.2-1.55zm-1.8-16.7l-8.05-4.9 2.5 2.45c1.867 1.767 3.433 2.95 4.7 3.55 1.333 0.6 1.867 0.6 1.6 0l-0.75-1.1zm7.9-8.1l-5.6-4.3 1.5 2.15c1.167 1.567 2.2 2.6 3.1 3.1 0.934 0.567 1.367 0.567 1.3 0l-0.3-0.95z" fill="#4D120B"/>
	</g>
</symbol>
<symbol id="al" viewBox="-3.906 -5.21 7.784 10.422">
		<g clip-rule="evenodd" fill-rule="evenodd">
			<path d="m3.05 0.3c0.233 1.167 0.067 2.167-0.5 3-0.6 0.833-1.383 1.1-2.35 0.8-0.967-0.267-1.7-0.55-2.2-0.85-0.533-0.3-0.9-0.933-1.1-1.9-0.233-0.934-0.133-1.9 0.3-2.9 0.466-1 1.117-1.6 1.95-1.8 0.867-0.2 1.667 0.05 2.4 0.75 0.767 0.7 1.267 1.667 1.5 2.9zm0.35-1.75c-0.333-0.733-0.8-1.367-1.4-1.9-0.467-0.4-0.95-0.667-1.45-0.8-0.466-0.133-0.966-0.133-1.5 0-0.767 0.167-1.383 0.566-1.85 1.2-0.2 0.267-0.383 0.55-0.55 0.85-0.566 1.167-0.7 2.35-0.4 3.55 0.267 1.2 0.883 2.1 1.85 2.7 0.933 0.633 1.9 0.983 2.9 1.05 0.967 0.1 1.733-0.417 2.3-1.55s0.717-2.383 0.45-3.75c-0.067-0.467-0.183-0.917-0.35-1.35z" fill="#8B9C6A"/>
				<linearGradient id="be" x1="10426" x2="10431" y1="-19273" y2="-19273" gradientTransform="matrix(-.8592 -.5117 .5499 -.8364 19560 -10783)" gradientUnits="userSpaceOnUse">
				<stop stop-color="#232916" offset="0"/>
				<stop stop-color="#414E20" offset=".9882"/>
			</linearGradient>
			<path d="m3.05 0.3c-0.233-1.233-0.733-2.2-1.5-2.9-0.733-0.7-1.533-0.95-2.4-0.75-0.833 0.2-1.483 0.8-1.95 1.8-0.434 1-0.534 1.966-0.3 2.9 0.2 0.967 0.567 1.6 1.1 1.9 0.5 0.3 1.233 0.583 2.2 0.85 0.966 0.3 1.75 0.033 2.35-0.8 0.567-0.833 0.733-1.833 0.5-3z" fill="url(#be)"/>
			<path d="m-2.8-2.95c0.466-0.633 1.083-1.033 1.85-1.2 0.534-0.133 1.034-0.133 1.5 0 0.5 0.133 0.983 0.4 1.45 0.8 0.6 0.533 1.067 1.167 1.4 1.9l0.05-0.6c0-0.434-0.034-0.817-0.1-1.15l-0.25-0.85c-1.233-1.233-2.567-1.483-4-0.75-0.4 0.167-0.767 0.283-1.1 0.35l-0.8 1.5z" fill="#414E20"/>
		</g>
</symbol>
<symbol id="am" viewBox="-9.35 -1.2 18.75 2.4">
		<g clip-rule="evenodd" fill-rule="evenodd">
			<path d="m8.8 1c0.2 0 0.4-0.05 0.6-0.15l-0.5-2h-0.65l-0.05-0.05v0.05l0.6 2.15z" fill="#CFE08A"/>
			<path d="m-9.05 1.15c0.233 0.033 0.483 0.05 0.75 0.05-0.1-1.267-0.233-1.983-0.4-2.15-0.2-0.133-0.417-0.167-0.65-0.1 0.1 1 0.2 1.733 0.3 2.2z" fill="#B2C271"/>
		</g>
</symbol>
<symbol id="an" viewBox="-17.75 -20.05 35.55 40.05">
	<g clip-rule="evenodd" fill-rule="evenodd">
				<path d="m4.7-17.4c-3.034-0.434-5.067-0.517-6.1-0.25-1.333 0.367-1.383 1.35-0.15 2.95 1.133 1.467 3.15 2.717 6.05 3.75 2.4 0.833 4.05 1.184 4.95 1.05l0.65-0.05c0.4-0.066 0.6-0.267 0.6-0.6 0-1.034-0.35-2.167-1.05-3.4-1.067-1.967-2.717-3.117-4.95-3.45z" fill="#414E20"/>
				<path d="m4.5 9.45c0.567-1.2 1.067-2.55 1.5-4.05 2.067-6.6 1.983-12.15-0.25-16.65 0.767 1.133 1.467 3.167 2.1 6.1 0.6 2.933 0.883 5.533 0.85 7.8-0.133 4.8-1.7 7.667-4.7 8.6-0.233 0.567-0.533 0.883-0.9 0.95 1.8-0.1 3.383-0.817 4.75-2.15 1.633-1.633 2.45-4.083 2.45-7.35-0.033-3.5-1-8.05-2.9-13.65-1.566-2.4-2.6-3.167-3.1-2.3l-0.15 1.95c0.467 5.8 0.7 10.567 0.7 14.3 0 2.8-0.117 4.95-0.35 6.45zm-2.6 2c0.367 0.033 0.684-2.217 0.95-6.75 0.367-6.9 0.283-11.683-0.25-14.35-1.033 4.733-1.433 9.983-1.2 15.75 0.067 1.8 0.233 3.583 0.5 5.35zm-0.35-24.6c-0.333-0.867-0.933-1.467-1.8-1.8-2.233-1-4.117 0.05-5.65 3.15-3.2 9.2-4.117 15.533-2.75 19 0.5 1.333 1.483 2.483 2.95 3.45l2.05 0.95c1.6 0.5 3.05 0.517 4.35 0.05-1.434-2.133-1.883-5.8-1.35-11 0.6-5.867 1.367-9.717 2.3-11.55 0.333-0.7 0.3-1.45-0.1-2.25zm-3.6 13.7c-0.5 5.967-0.1 9.65 1.2 11.05-0.9-0.367-1.65-1.3-2.25-2.8-1.367-3.533-0.8-10.633 1.7-21.3 0.667-1.033 1.1-1.317 1.3-0.85-0.9 4.8-1.55 9.433-1.95 13.9zm-4.65 8.1c-0.966-1.667-1.316-3.967-1.05-6.9 0.3-3.2 1.35-7.4 3.15-12.6l0.85-1.35c-0.767 4.4-1.267 8.717-1.5 12.95-0.267 5.7 0.333 9.217 1.8 10.55-1.333-0.4-2.417-1.283-3.25-2.65z" fill="#8B9C6A"/>
				<path d="m4 11.25c-0.167 0.067-0.333 0.117-0.5 0.15 0.333-0.6 0.667-1.25 1-1.95 0.233-1.5 0.35-3.65 0.35-6.45 0-3.733-0.233-8.5-0.7-14.3l0.15-1.95c0.5-0.867 1.534-0.1 3.1 2.3 1.9 5.6 2.867 10.15 2.9 13.65 0 3.267-0.816 5.716-2.45 7.35-1.367 1.333-2.95 2.05-4.75 2.15 0.367-0.067 0.667-0.383 0.9-0.95zm-2.1 0.2c-0.267-1.767-0.433-3.55-0.5-5.35-0.233-5.767 0.167-11.017 1.2-15.75 0.533 2.667 0.617 7.45 0.25 14.35-0.267 4.533-0.583 6.783-0.95 6.75zm7.05-0.35c1.6-1.233 2.716-3.167 3.35-5.8s0.7-5.583 0.2-8.85c-0.567-3.733-1.617-6.733-3.15-9-0.567-0.667-1.35-1.35-2.35-2.05-2-1.467-4.167-2.25-6.5-2.35-2.133-0.167-4.033 0.583-5.7 2.25l-1.65 2.2c-1.5 2.867-2.533 6.2-3.1 10-0.466 3.333-0.4 6.133 0.2 8.4 0.667 2.467 2.017 4.25 4.05 5.35 2 1.067 4.85 1.6 8.55 1.6 2.533 0 4.567-0.583 6.1-1.75zm-7.4-24.25c0.4 0.8 0.434 1.55 0.1 2.25-0.933 1.833-1.7 5.683-2.3 11.55-0.533 5.2-0.083 8.867 1.35 11-1.3 0.467-2.75 0.45-4.35-0.05l-2.05-0.95c-1.467-0.967-2.45-2.117-2.95-3.45-1.367-3.467-0.45-9.8 2.75-19 1.533-3.1 3.417-4.15 5.65-3.15 0.867 0.333 1.467 0.933 1.8 1.8z" fill="#B2C271"/>
				<path d="m4.5 9.45c-0.333 0.7-0.667 1.35-1 1.95 0.167-0.033 0.333-0.083 0.5-0.15 3-0.933 4.567-3.8 4.7-8.6 0.033-2.267-0.25-4.867-0.85-7.8-0.633-2.934-1.333-4.967-2.1-6.1 2.233 4.5 2.317 10.05 0.25 16.65-0.433 1.5-0.933 2.85-1.5 4.05z" fill="#DCEAA9"/>
				<path d="m-6.7 8.65c0.833 1.367 1.917 2.25 3.25 2.65-1.466-1.333-2.066-4.85-1.8-10.55 0.233-4.233 0.733-8.55 1.5-12.95l-0.85 1.35c-1.8 5.2-2.85 9.4-3.15 12.6-0.267 2.933 0.083 5.233 1.05 6.9z" fill="#414E20"/>
				<path d="m-2.05 0.55c0.4-4.466 1.05-9.1 1.95-13.9-0.2-0.467-0.633-0.183-1.3 0.85-2.5 10.667-3.067 17.767-1.7 21.3 0.6 1.5 1.35 2.434 2.25 2.8-1.3-1.4-1.7-5.083-1.2-11.05z" fill="#5C6E37"/>
				<path d="m10.1 7.85l5.35 5.6c-1.434-3-2.9-5.133-4.4-6.4-0.867-0.667-1.3-0.75-1.3-0.25 0.067 0.333 0.183 0.683 0.35 1.05zm-3.9 3.65l6.35 4.25c-2.1-2.667-3.966-4.417-5.6-5.25-1-0.467-1.434-0.45-1.3 0.05l0.55 0.95zm-3.15-1.05l-0.5 0.95-0.3 8c1.1-3.333 1.583-5.933 1.45-7.8-0.033-1.2-0.25-1.583-0.65-1.15zm0.55-6.5c-0.1 0.2-0.15 0.433-0.15 0.7l2.7 3.7c-0.267-2.067-0.8-3.483-1.6-4.25-0.533-0.467-0.85-0.517-0.95-0.15zm6.6-2.6c-1.1 0.267-1.417 0.55-0.95 0.85l1 0.45 7.55-0.85c-3.267-0.7-5.8-0.85-7.6-0.45zm-4.95-11.35l3.55-9.75c-2.466 3.767-4 6.85-4.6 9.25-0.4 1.5-0.35 2.017 0.15 1.55l0.9-1.05zm0.3 7.5c-0.3 0.567 0.167 0.45 1.4-0.35 2-1.3 4.517-3.566 7.55-6.8l-8.1 6.05c-0.3 0.3-0.583 0.667-0.85 1.1zm-3.85-3.3c0.533 0.133 0.85 0.033 0.95-0.3l-0.1-0.65-3.1-1.7 0.65 1.15c0.567 0.867 1.1 1.367 1.6 1.5zm0.9-8.2l-0.05-0.9-3.85-5.15 0.8 2.25c0.667 1.733 1.333 2.9 2 3.5 0.633 0.7 1 0.8 1.1 0.3zm-8.55 14.25l-0.9-0.75-8.1-2 2.7 1.45c2 0.966 3.667 1.55 5 1.75 1.2 0.133 1.633-0.017 1.3-0.45zm-2.4 1.7l-1.1-0.4-8.3 0.7c3.6 0.767 6.367 0.95 8.3 0.55 1.167-0.233 1.533-0.517 1.1-0.85zm6 9.5l-1.8 8.55c1.767-3.433 2.75-6.167 2.95-8.2 0.167-1.267 0.017-1.716-0.45-1.35l-0.7 1zm-5.85-5.45l-1.1 0.25-6.65 5.35c3.4-1.4 5.817-2.817 7.25-4.25 0.9-0.9 1.067-1.35 0.5-1.35zm-2-18.85c1.167 1.934 2.25 3.35 3.25 4.25 0.967 0.8 1.417 0.9 1.35 0.3l-0.4-1.15-5.8-6.2 1.6 2.8z" fill="#4D120B"/>
	</g>
</symbol>
<symbol id="ao" viewBox="-19.6 -16.45 39.25 32.9">
	<g clip-rule="evenodd" fill-rule="evenodd">
				<path d="m10.05 8.4c2.567-1.1 4.333-2.6 5.3-4.5 0.933-1.9 1.183-4.367 0.75-7.4-0.3-2.133-1.184-3.733-2.65-4.8-1.567-1.133-3.833-1.733-6.8-1.8-3.066 0-6.483 0.5-10.25 1.5-4.433 1.267-7.933 2.817-10.5 4.65-0.733 0.6-1.483 1.45-2.25 2.55-1.566 2.233-2.233 4.367-2 6.4 0.167 1.967 1.4 3.483 3.7 4.55l3 0.9c3.933 0.566 8.033 0.617 12.3 0.15 3.833-0.4 6.967-1.133 9.4-2.2zm5.45-6.25l-0.8 1.9c-0.867 1.367-1.983 2.417-3.35 3.15-3.7 1.966-11.133 2.7-22.3 2.2-2-0.267-3.4-0.767-4.2-1.5-0.833-0.733-1-1.65-0.5-2.75 0.3-0.833 0.95-1.5 1.95-2 0.934-0.5 1.85-0.7 2.75-0.6 2.567 0.4 7.233 0.2 14-0.6 5.833-0.667 9.833-1.817 12-3.45 0.667 0.933 0.817 2.15 0.45 3.65zm-1.25-6.35c0.067 0.167 0.133 0.317 0.2 0.45-0.733-0.167-1.5-0.333-2.3-0.5-1.7 0.1-4.066 0.433-7.1 1-5.433 1-11.05 2.217-16.85 3.65l-2.45 0.3c-1.133-0.233-0.317-1.317 2.45-3.25 6.433-2.8 11.667-4.55 15.7-5.25 3.733-0.667 6.6-0.45 8.6 0.65 1.6 0.9 2.55 2.083 2.85 3.55-0.1-0.267-0.467-0.467-1.1-0.6zm-7.1 2.3c5.067-0.667 7.583-0.85 7.55-0.55-1.5 0.467-3.417 0.967-5.75 1.5-6.467 1.433-12.633 2.217-18.5 2.35 3.233-1.067 8.8-2.167 16.7-3.3z" fill="#B2C271"/>
				<path d="m12.65 5.25c-1.667 1.2-4.2 2.017-7.6 2.45-3.667 0.5-8.683 0.617-15.05 0.35l-1.75-0.4c5.333-0.4 10.5-1 15.5-1.8 6.367-1.033 10.167-2.317 11.4-3.85-0.233 1.2-1.067 2.283-2.5 3.25zm2.85-3.1c0.367-1.5 0.217-2.717-0.45-3.65-2.167 1.633-6.167 2.783-12 3.45-6.767 0.8-11.433 1-14 0.6-0.9-0.1-1.816 0.1-2.75 0.6-1 0.5-1.65 1.167-1.95 2-0.5 1.1-0.333 2.017 0.5 2.75 0.8 0.733 2.2 1.233 4.2 1.5 11.167 0.5 18.6-0.233 22.3-2.2 1.367-0.733 2.483-1.784 3.35-3.15l0.8-1.9zm-3.35-6.4c-1.4-0.2-2.917-0.35-4.55-0.45-7.933-0.433-14.467 0.783-19.6 3.65 1.233-0.867 3.617-1.917 7.15-3.15 3.3-1.1 6.3-1.85 9-2.25 5.367-0.867 8.733-0.117 10.1 2.25 0.633 0.133 1 0.333 1.1 0.6-0.3-1.467-1.25-2.65-2.85-3.55-2-1.1-4.867-1.317-8.6-0.65-4.033 0.7-9.267 2.45-15.7 5.25-2.767 1.933-3.583 3.017-2.45 3.25l2.45-0.3c5.8-1.433 11.417-2.65 16.85-3.65 3.033-0.567 5.4-0.9 7.1-1zm-5 2.35c-7.9 1.133-13.467 2.233-16.7 3.3 5.867-0.133 12.033-0.917 18.5-2.35 2.333-0.533 4.25-1.033 5.75-1.5 0.033-0.3-2.483-0.117-7.55 0.55zm-4 5.1c6.733-0.9 10.733-2.034 12-3.4-0.3 0.833-1.217 1.65-2.75 2.45-3.7 1.867-11.983 2.983-24.85 3.35-1.333-0.333-1.75-0.65-1.25-0.95 6.2-0.333 11.817-0.817 16.85-1.45z" fill="#8B9C6A"/>
				<path d="m12.65 5.25c1.434-0.967 2.267-2.05 2.5-3.25-1.233 1.533-5.033 2.817-11.4 3.85-5 0.8-10.167 1.4-15.5 1.8l1.75 0.4c6.367 0.267 11.383 0.15 15.05-0.35 3.4-0.433 5.933-1.25 7.6-2.45z" fill="#414E20"/>
				<path d="m3.15 3.2c-5.033 0.633-10.65 1.117-16.85 1.45-0.5 0.3-0.083 0.617 1.25 0.95 12.867-0.367 21.15-1.483 24.85-3.35 1.533-0.8 2.45-1.617 2.75-2.45-1.267 1.367-5.267 2.5-12 3.4z" fill="#5C6E37"/>
				<path d="m12.15-4.25c0.8 0.167 1.567 0.333 2.3 0.5-0.067-0.133-0.133-0.283-0.2-0.45-1.367-2.367-4.733-3.117-10.1-2.25-2.7 0.4-5.7 1.15-9 2.25-3.533 1.233-5.917 2.283-7.15 3.15 5.133-2.867 11.667-4.083 19.6-3.65 1.633 0.1 3.15 0.25 4.55 0.45z" fill="#DCEAA9"/>
				<path d="m2.65 7.8l-0.45 1.05 0.2 7.6c0.967-3.3 1.317-5.85 1.05-7.65-0.2-1.1-0.467-1.433-0.8-1zm3.9-0.25l0.2 1 4.6 5.8c-1.1-3-2.283-5.133-3.55-6.4-0.8-0.8-1.217-0.933-1.25-0.4zm-6.2-1.05l-2.45 7.6 1.6-2.6c1.067-1.9 1.733-3.45 2-4.65 0.233-1.133 0.117-1.533-0.35-1.2l-0.8 0.85zm10.8-5l0.85 0.6 7.65 1.5c-3-1.533-5.417-2.367-7.25-2.5-1.2-0.1-1.617 0.033-1.25 0.4zm0.5-6.6l0.95-0.5 4.25-5.7c-2.6 1.867-4.317 3.55-5.15 5.05-0.567 0.933-0.583 1.317-0.05 1.15zm7.8 3.05c-2.9-1.034-5.217-1.467-6.95-1.3-1.1 0.1-1.467 0.3-1.1 0.6l0.85 0.45 7.2 0.25zm-10.05-7.15l5.5-4.75c-2.933 1.3-5 2.6-6.2 3.9-0.767 0.833-0.867 1.217-0.3 1.15 0.267 0 0.6-0.1 1-0.3zm-3.45 6.1l3.7-2.45c-2 0.2-3.383 0.683-4.15 1.45-0.5 0.467-0.567 0.75-0.2 0.85 0.167 0.1 0.383 0.15 0.65 0.15zm-2-5.4l0.45-0.9-0.35-7.05c-0.833 3-1.133 5.35-0.9 7.05 0.2 1 0.467 1.3 0.8 0.9zm-16.35 18.55c2.1-1.167 3.633-2.233 4.6-3.2 0.933-0.967 1.066-1.4 0.4-1.3l-1.2 0.35-6.85 5.8 3.05-1.65zm6.35-9.95c0.8-0.434 1.35-0.95 1.65-1.55 0.167-0.533 0.066-0.816-0.3-0.85l-0.65 0.05-1.95 2.95 1.25-0.6zm-11.05 0.65c1.833-0.667 3.117-1.317 3.85-1.95 0.767-0.667 0.883-1.017 0.35-1.05l-0.95 0.05-5.75 3.75 2.5-0.8zm15.9-7.15c-1.1-1.833-3.25-4.267-6.45-7.3l5.7 7.85 1.05 0.8c0.567 0.3 0.467-0.15-0.3-1.35zm-7.35 1.6l-10.2-3.55c3.9 2.434 7.1 3.95 9.6 4.55 1.566 0.333 2.117 0.283 1.65-0.15l-1.05-0.85z" fill="#4D120B"/>
	</g>
</symbol>
<symbol viewBox="-25.772 -53.2 51.544 106.424">
		<path d="m25.25 4.5c-0.9-10.233-2.883-20.333-5.95-30.3-2.767-9-5.75-15.767-8.95-20.3l-3.95-3.55c-3.167-2.333-6.317-3.517-9.45-3.55-3.066 0-5.85 1.517-8.35 4.55l-2.85 4.6c-3.034 6.8-5.684 15.55-7.95 26.25-2.567 12.367-3.75 23.7-3.55 34 0.267 12.767 2.7 22.3 7.3 28.6 5.7 7.8 14.417 10.184 26.15 7.15 7-1.767 11.983-6.667 14.95-14.7 2.933-8 3.8-18.917 2.6-32.75z" clip-rule="evenodd" fill="#B2C271" fill-rule="evenodd"/>
</symbol>
<symbol id="ap" viewBox="-5 -6.327 10 12.678">
		<g clip-rule="evenodd" fill-rule="evenodd">
			<path d="m2.85 3.45c-0.733 0.233-1.633 0.55-2.7 0.95s-1.933 0.267-2.6-0.4-1-1.65-1-2.95c0-1.333 0.367-2.483 1.1-3.45 0.7-0.934 1.567-1.4 2.6-1.4 1 0 1.867 0.466 2.6 1.4 0.7 0.967 1.05 2.117 1.05 3.45 0 1.367-0.35 2.167-1.05 2.4zm1.55-5.35c-0.233-0.5-0.517-0.967-0.85-1.4-1-1.233-2.183-1.85-3.55-1.85h-0.3c-1.233 0.1-2.317 0.717-3.25 1.85-0.133 0.167-0.25 0.317-0.35 0.45-0.733 1.133-1.1 2.45-1.1 3.95 0 1.667 0.533 3.017 1.6 4.05 1.066 1.033 2.217 1.4 3.45 1.1s2.367-0.8 3.4-1.5c1.033-0.667 1.55-1.883 1.55-3.65 0-1.1-0.2-2.1-0.6-3z" fill="#B2C271"/>
				<linearGradient id="bf" x1="6260.7" x2="6267.7" y1="-19473" y2="-19473" gradientTransform="matrix(-.585 -.8111 .8111 -.585 19458 -6308.8)" gradientUnits="userSpaceOnUse">
				<stop stop-color="#232916" offset="0"/>
				<stop stop-color="#414E20" offset=".9882"/>
			</linearGradient>
			<path d="m2.85 3.45c0.7-0.233 1.05-1.034 1.05-2.4 0-1.333-0.35-2.483-1.05-3.45-0.733-0.934-1.6-1.4-2.6-1.4-1.033 0-1.9 0.466-2.6 1.4-0.733 0.967-1.1 2.117-1.1 3.45 0 1.3 0.333 2.284 1 2.95 0.667 0.667 1.534 0.8 2.6 0.4 1.067-0.4 1.967-0.717 2.7-0.95z" fill="url(#bf)"/>
			<path d="m4.4-1.9c-0.167-0.8-0.45-1.617-0.85-2.45-0.333-0.8-0.667-1.3-1-1.5-1.233-0.6-2.433-0.633-3.6-0.1-1.067 0.6-1.883 1.35-2.45 2.25-0.167 0.3-0.3 0.583-0.4 0.85 0.1-0.133 0.217-0.283 0.35-0.45 0.933-1.133 2.017-1.75 3.25-1.85h0.3c1.367 0 2.55 0.617 3.55 1.85 0.333 0.433 0.617 0.9 0.85 1.4z" fill="#8B9C6A"/>
		</g>
</symbol>
<symbol id="aq" viewBox="-21.378 -20.15 42.778 40.25">
	<g clip-rule="evenodd" fill-rule="evenodd">
				<path d="m-19.25 2c0.833 0.633 1.517 0.75 2.05 0.35 1.934-1.3 3.35-2.883 4.25-4.75 1.3-2.7 1.2-5.517-0.3-8.45-1.6-3.133-3.467-3.15-5.6-0.05-2.133 3-2.917 6.033-2.35 9.1 0.333 1.767 0.983 3.033 1.95 3.8z" fill="#414E20"/>
				<path d="m14.25 7.05c-0.733 1.267-2.067 2.2-4 2.8-2.267 0.633-5.233 0.483-8.9-0.45-3.967-1.067-9.05-3.117-15.25-6.15l-1.55-1.2c5.6 1.833 10.967 3.333 16.1 4.5 7.067 1.6 11.6 1.767 13.6 0.5zm0.35 0.3c0.967-1.567 1.3-3.083 1-4.55-3.1 0.967-7.833 0.617-14.2-1.05-7.167-1.933-11.867-3.6-14.1-5-0.733-0.5-1.683-0.65-2.85-0.45s-2.034 0.684-2.6 1.45c-1.767 2.067-0.833 4.283 2.8 6.65 5.833 2.9 10.683 4.917 14.55 6.05 3.6 1.066 6.566 1.45 8.9 1.15 1.7-0.233 3.333-1 4.9-2.3l1.6-1.95zm0.55-2.95c-0.7 0.9-2.033 1.467-4 1.7-2.333 0.3-5.517-0.033-9.55-1-4.3-1.033-9.934-2.883-16.9-5.55-1.133-0.933-1.417-1.466-0.85-1.6 6.1 2.133 11.817 3.883 17.15 5.25 7.433 1.867 12.15 2.267 14.15 1.2zm0.4-2.9c0.167-0.367-2.617-1.217-8.35-2.55-8.767-1.933-14.817-2.917-18.15-2.95 5.933 2.167 12.483 3.767 19.65 4.8 2.433 0.333 4.717 0.567 6.85 0.7zm0.2-2.3c0.667 0.4 1 0.8 1 1.2 0.2-1.933-0.4-3.75-1.8-5.45-1.733-2.067-4.65-3.467-8.75-4.2-4.4-0.767-10.333-0.783-17.8-0.05-3.333 1.1-4.517 2-3.55 2.7l2.4 0.6c7.467 0.833 13.55 1.667 18.25 2.5 3.4 0.6 6.05 1.183 7.95 1.75-1.4-0.8-2.967-1.617-4.7-2.45-7.967-3.566-15-4.733-21.1-3.5 1.767-0.533 4.483-0.8 8.15-0.8 3.733 0 7.067 0.3 10 0.9 6.033 1.2 9.35 3.467 9.95 6.8z" fill="#8B9C6A"/>
				<path d="m15.15 4.4c-2 1.067-6.717 0.667-14.15-1.2-5.333-1.367-11.05-3.117-17.15-5.25-0.567 0.133-0.283 0.667 0.85 1.6 6.967 2.667 12.6 4.517 16.9 5.55 4.033 0.967 7.217 1.3 9.55 1 1.967-0.233 3.3-0.8 4-1.7z" fill="#5C6E37"/>
				<path d="m17.5 0.85c0.5-2.667 0.167-4.934-1-6.8-1.233-1.966-3.45-3.583-6.65-4.85-3.1-1.233-6.8-1.967-11.1-2.2-4.833-0.2-8.833 0.233-12 1.3-0.967 0.4-1.983 1.067-3.05 2-2.267 1.8-3.7 3.867-4.3 6.2-0.6 2.233-0.033 4.4 1.7 6.5l2.5 2.25c3.367 2.2 7.367 4.033 12 5.5 4.1 1.267 7.633 1.817 10.6 1.65 3.233-0.167 5.75-1.167 7.55-3 1.767-1.833 3.017-4.683 3.75-8.55zm-2.9 6.5l-1.6 1.95c-1.567 1.3-3.2 2.067-4.9 2.3-2.333 0.3-5.3-0.083-8.9-1.15-3.867-1.133-8.717-3.15-14.55-6.05-3.633-2.367-4.566-4.583-2.8-6.65 0.566-0.767 1.433-1.25 2.6-1.45s2.117-0.05 2.85 0.45c2.233 1.4 6.934 3.067 14.1 5 6.367 1.667 11.1 2.017 14.2 1.05 0.3 1.467-0.033 2.983-1 4.55zm1.15-8.15c0.033 0.233 0.05 0.45 0.05 0.65-0.733-0.533-1.517-1.067-2.35-1.6-1.9-0.567-4.55-1.15-7.95-1.75-4.7-0.833-10.783-1.667-18.25-2.5l-2.4-0.6c-0.967-0.7 0.217-1.6 3.55-2.7 7.467-0.733 13.4-0.717 17.8 0.05 4.1 0.733 7.017 2.133 8.75 4.2 1.4 1.7 2 3.517 1.8 5.45 0-0.4-0.333-0.8-1-1.2zm-0.2 2.3c-2.133-0.133-4.417-0.367-6.85-0.7-7.167-1.033-13.717-2.633-19.65-4.8 3.333 0.033 9.383 1.017 18.15 2.95 5.733 1.333 8.517 2.183 8.35 2.55z" fill="#B2C271"/>
				<path d="m14.25 7.05c-2 1.267-6.533 1.1-13.6-0.5-5.133-1.167-10.5-2.667-16.1-4.5l1.55 1.2c6.2 3.033 11.283 5.083 15.25 6.15 3.667 0.934 6.633 1.083 8.9 0.45 1.933-0.6 3.267-1.533 4-2.8z" fill="#414E20"/>
				<path d="m15.75-0.8c-0.6-3.333-3.917-5.6-9.95-6.8-2.933-0.6-6.267-0.9-10-0.9-3.667 0-6.383 0.267-8.15 0.8 6.1-1.233 13.133-0.066 21.1 3.5 1.733 0.833 3.3 1.65 4.7 2.45 0.833 0.533 1.617 1.067 2.35 1.6 0-0.2-0.017-0.417-0.05-0.65z" fill="#DCEAA9"/>
				<path d="m5.25 20.1c0-4.167-0.417-7.25-1.25-9.25-0.533-1.333-0.917-1.683-1.15-1.05l-0.2 1.3 2.6 9zm5.55-14.3l7.85 5.25c-2.7-3.2-5.033-5.316-7-6.35-1.233-0.633-1.75-0.65-1.55-0.05l0.7 1.15zm9.9-1.7c-2.7-2.434-5.1-3.983-7.2-4.65-1.233-0.367-1.717-0.284-1.45 0.25l0.75 0.9 7.9 3.5zm-9.5-12.85c0.267 0.1 0.667 0.117 1.2 0.05l7.9-3.45c-3.667 0.4-6.433 1.117-8.3 2.15-1.067 0.633-1.333 1.05-0.8 1.25zm3.25 5.55l6.95-5c-3.6 1.233-6.15 2.517-7.65 3.85-0.9 0.9-1.067 1.35-0.5 1.35 0.367 0 0.767-0.067 1.2-0.2zm-7.25-7.7l2.35-8.25c-2.1 3.2-3.316 5.783-3.65 7.75-0.2 1.233-0.05 1.683 0.45 1.35 0.233-0.1 0.517-0.383 0.85-0.85zm-6.9 1.3c-0.466-2.7-1.7-6.217-3.7-10.55l2.75 10.9c0.267 0.633 0.517 1.067 0.75 1.3 0.433 0.6 0.5 0.05 0.2-1.65zm5.45 6.2c0.1 0.133 0.317 0.283 0.65 0.45l4.85-1.4c-2.133-0.566-3.783-0.566-4.95 0-0.7 0.367-0.883 0.683-0.55 0.95zm-17.1 6.2c1.267-0.7 1.567-1.15 0.9-1.35l-1.3-0.05-8.7 3.7 3.45-0.55c2.533-0.5 4.417-1.083 5.65-1.75zm10.05 5.55l-0.85 1-2.8 9c2.3-3.467 3.65-6.3 4.05-8.5 0.3-1.367 0.167-1.867-0.4-1.5zm-0.8-1.65c0.733-1.233 0.767-1.75 0.1-1.55l-1.15 0.7-5.4 7.75 2.6-2.3c1.867-1.833 3.15-3.367 3.85-4.6zm-3.35-13.15l-3.05 2.55 1.45-0.25c1.066-0.2 1.8-0.55 2.2-1.05s0.417-0.883 0.05-1.15l-0.65-0.1zm-1.45-2.8l-0.7-1.35-8.35-7.55c2.8 4.033 5.267 6.85 7.4 8.45 1.367 1.067 1.917 1.217 1.65 0.45zm-6.6 0.9c1-0.4 1.25-0.75 0.75-1.05l-0.95-0.25-6.75 2h2.6c1.9 0 3.35-0.233 4.35-0.7z" fill="#4D120B"/>
	</g>
</symbol>
<symbol id="ar" viewBox="-72.95 -61.95 138.72 126.666">
				<radialGradient id="bg" cx="-11.275" cy="-55.15" r="24.514" gradientTransform="matrix(1 0 0 -.2766 0 -70.406)" gradientUnits="userSpaceOnUse">
				<stop stop-opacity=".6784" offset="0"/>
				<stop stop-opacity=".1137" offset=".7176"/>
			</radialGradient>
			<path d="m13.25-55.15c0-1.867-2.4-3.467-7.2-4.8s-10.583-2-17.35-2-12.55 0.667-17.35 2c-4.767 1.333-7.15 2.934-7.15 4.8s2.383 3.467 7.15 4.8c4.8 1.333 10.583 2 17.35 2s12.55-0.667 17.35-2 7.2-2.933 7.2-4.8z" clip-rule="evenodd" fill="url(#bg)" fill-rule="evenodd"/>
				<use transform="translate(-40.85 -15.7)" x="-19.6" y="-16.45" width="39.25" height="32.9" xlink:href="#ao"/>
				<use transform="translate(-55.2 5.2002)" x="-17.75" y="-20.05" width="35.55" height="40.05" xlink:href="#an"/>
				<use transform="translate(25.2 -17.05)" x="-21.378" y="-20.15" width="42.778" height="40.25" xlink:href="#aq"/>
				<use transform="translate(42.35 2.1499)" x="-19.75" y="-22.55" width="39.5" height="45.1" xlink:href="#ak"/>
			<path d="m14.5 33.3c2.933-8 3.8-18.917 2.6-32.75-0.9-10.233-2.883-20.333-5.95-30.3-2.767-9-5.75-15.767-8.95-20.3l-3.95-3.55c-3.167-2.333-6.317-3.517-9.45-3.55-3.066 0-5.85 1.517-8.35 4.55l-2.85 4.6c-3.033 6.8-5.684 15.55-7.95 26.25-2.566 12.367-3.75 23.7-3.55 34 0.267 12.767 2.7 22.3 7.3 28.6 5.7 7.8 14.417 10.183 26.15 7.15 7-1.767 11.983-6.667 14.95-14.7z" clip-rule="evenodd" fill="#B2C271" fill-rule="evenodd"/>
				<use transform="translate(-32.1 44.95)" x="0.018" y="-98.947" width="44.946" height="98.945" xlink:href="#as"/>
				<use transform="translate(-28.7 41.3)" x="0.006" y="-92.007" width="37.948" height="92.007" xlink:href="#at"/>
				<use transform="translate(-44.55 53.95)" y="-99.2" width="68.2" height="99.2" xlink:href="#av"/>
				<linearGradient id="bh" x1="185.87" x2="197.1" y1="-16887" y2="-16887" gradientTransform="matrix(-.0801 -.9968 1.001 -.0275 16906 -267.89)" gradientUnits="userSpaceOnUse">
				<stop stop-color="#232916" offset="0"/>
				<stop stop-color="#414E20" offset=".9882"/>
			</linearGradient>
			<path d="m-31.05 9.1c-0.167 0.667 0 1.167 0.5 1.5 0.033 0.066 0.083 0.117 0.15 0.15 0.5 0.367 1.6 0.867 3.3 1.5l0.9 0.15c0.067-0.633 0.083-1.017 0.05-1.15 0-0.4 0.1-0.6 0.3-0.6l2.15 0.1c0.233 0 0.483 0.05 0.75 0.15 0.233 0.067 0.467 0.184 0.7 0.35 0.133 0.033 0.267 0.6 0.4 1.7h0.2c0.167 0 0.333 0.017 0.5 0.05 4.433 0.4 8.283 0.45 11.55 0.15l-0.25-1.75c0-0.367 0.233-0.583 0.7-0.65 1.066-0.167 1.9-0.25 2.5-0.25l1.4 0.1 0.55 2.1v0.05c0.067-0.033 0.15-0.05 0.25-0.05 4.233-0.833 6.883-1.517 7.95-2.05 1.1-0.533 1.75-0.983 1.95-1.35 0.167-0.333 0.25-0.633 0.25-0.9v-0.35c-0.034-0.333-0.217-0.667-0.55-1l-0.2-0.2c-0.067-0.033-0.117-0.067-0.15-0.1l-0.55-0.35c-1.133-0.467-2.35-0.767-3.65-0.9-1.533-0.2-3.1-0.3-4.7-0.3-1.4-0.034-2.833-0.067-4.3-0.1-1.6-0.033-3.2 0-4.8 0.1-0.167 0.033-0.316 0.05-0.45 0.05-0.1 0.033-0.184 0.05-0.25 0.05 0 0.9-0.2 1.8-0.6 2.7-1.133 0.067-2.3 0.033-3.5-0.1l-0.25-0.35c-0.067-0.333-0.083-0.95-0.05-1.85v-0.1h-1.4c-2.7-0.067-5.25 0.217-7.65 0.85-1.867 0.533-2.9 0.983-3.1 1.35-0.333 0.567-0.533 1-0.6 1.3z" clip-rule="evenodd" fill="url(#bh)" fill-rule="evenodd"/>
			<path d="m-15.35 7.4l-2.9 0.15 0.25 0.4c1.2 0.1 2.367 0.1 3.5 0 0.4-0.867 0.6-1.767 0.6-2.7h0.7c1.6-0.133 3.2-0.183 4.8-0.15 1.467 0 2.9 0.017 4.3 0.05 1.6 0.033 3.167 0.133 4.7 0.3 1.3 0.133 2.517 0.466 3.65 1-1.133-0.567-2.333-1.034-3.6-1.4-1.333-0.367-2.75-0.55-4.25-0.55-1.566-0.033-3.1-0.067-4.6-0.1-1.566-0.133-3.117-0.15-4.65-0.05-0.7 0.066-1.383 0.117-2.05 0.15 0 1-0.15 1.967-0.45 2.9zm-15.2 3.25c-0.5-0.4-0.667-0.917-0.5-1.55 0.066-0.3 0.267-0.717 0.6-1.25 0.2-0.4 1.233-0.867 3.1-1.4 2.4-0.667 4.95-0.967 7.65-0.9l1.35 0.05c0.033-0.233 0.033-0.45 0-0.65-0.6 0-1.367 0.017-2.3 0.05-2.7-0.067-5.2 0.267-7.5 1-1.8 0.5-2.817 0.967-3.05 1.4-0.333 0.533-0.533 0.967-0.6 1.3-0.167 0.667 0.05 1.2 0.65 1.6 0.1 0.067 0.3 0.183 0.6 0.35z" clip-rule="evenodd" fill="#B2C271" fill-rule="evenodd"/>
				<use transform="translate(-13.55 11.75)" x="-9.35" y="-1.2" width="18.75" height="2.4" xlink:href="#am"/>
				<use transform="translate(-25.8 20.05)" x="-3.906" y="-5.21" width="7.784" height="10.422" xlink:href="#al"/>
				<use transform="translate(-2.5 18.9)" x="-5" y="-6.327" width="10" height="12.678" xlink:href="#ap"/>
				</symbol>
<symbol id="as" viewBox="0.018 -98.947 44.946 98.945">
		<path d="m34.3-9.1c-0.367 4.067-1.1 6.467-2.2 7.2 4.9-2 8.55-7.567 10.95-16.7 2.333-8.933 2.534-19.6 0.6-32-1.9-12.233-5.816-25.883-11.75-40.95-2.8-4.5-4.483-5.9-5.05-4.2v3.85c1.9 12.367 3.633 25.967 5.2 40.8 1.3 12.1 2.083 21.967 2.35 29.6l-0.1 12.4zm-9.15 5.15c-4.233-12.8-5.917-30.95-5.05-54.45 0.7-17.167 1.7-27.934 3-32.3 0.467-1.433 0.35-2.933-0.35-4.5-0.633-1.533-1.567-2.617-2.8-3.25-3.2-1.6-6.15 0.667-8.85 6.8-8.667 27.633-12.25 49.433-10.75 65.4 0.667 7.467 2.817 13.883 6.45 19.25l1.55 1.85c1.333 1.433 2.7 2.6 4.1 3.5 4.667 2.8 8.9 2.033 12.7-2.3z" clip-rule="evenodd" fill="#8B9C6A" fill-rule="evenodd"/>
</symbol>
<symbol id="at" viewBox="0.006 -92.007 37.948 92.007">
	<g clip-rule="evenodd" fill-rule="evenodd">
		<path d="m37.25-20.6c1.167-7.767 0.883-17.617-0.85-29.55-1.167-8.1-2.933-16.233-5.3-24.4-1.967-6.867-3.683-11.45-5.15-13.75 5.033 10.267 7.15 27.066 6.35 50.4-0.233 7.033-0.667 13.75-1.3 20.15-0.467 4.733-1.017 9.3-1.65 13.7 0.533-0.434 1.05-0.9 1.55-1.4 3.2-3.333 5.317-8.383 6.35-15.15z" fill="#DCEAA9"/>
		<path d="m9.45-0.55c-3.8-7.567-4.6-24.75-2.4-51.55 1.133-13.433 2.567-25.667 4.3-36.7l-1.4 3.15c-9.067 31.433-11.933 54.983-8.6 70.65 1.1 5.067 2.783 8.983 5.05 11.75 1.167 1.4 2.183 2.3 3.05 2.7z" fill="#414E20"/>
		<path d="m17.25 0c-3.667-8.133-4.817-26.317-3.45-54.55 0.667-13.367 1.667-25.767 3-37.2-0.1-0.2-0.25-0.283-0.45-0.25-0.4 0.1-0.9 0.783-1.5 2.05-5.233 31.867-6.467 56.317-3.7 73.35 1.467 9.067 3.5 14.6 6.1 16.6z" fill="#5C6E37"/>
		<path d="m24.95-39.95c-1-23.367-2.2-38.233-3.6-44.6-1.1 12.7-0.85 29.9 0.75 51.6 0.867 11.733 1.833 21.867 2.9 30.4 1.067 0.2 1.05-12.267-0.05-37.4z" fill="#8B9C6A"/>
	</g>
</symbol>
<symbol viewBox="-215.054 118.36 37.551 11.769">
			<use transform="matrix(.9999 .0263 0 1 -214.3 129.7)" x="-0.013" y="-10.907" width="36.812" height="10.91" xlink:href="#au"/>
			<use transform="matrix(.9999 .0263 0 1 -215.05 126.6)" x="-0.004" y="-8.806" width="36.105" height="8.806" xlink:href="#bd"/>
			<use transform="matrix(.9999 .0263 0 1 -206.15 129.6)" y="-3.6" width="18.8" height="3.6" xlink:href="#bc"/>
</symbol>
<symbol id="au" viewBox="-0.013 -10.907 36.812 10.91">
			<linearGradient id="ah" x1="499.73" x2="514.31" y1="-16716" y2="-16716" gradientTransform="matrix(-.0617 -.9981 .9981 -.0617 16733 -535.59)" gradientUnits="userSpaceOnUse">
			<stop stop-color="#232916" offset="0"/>
			<stop stop-color="#414E20" offset=".9882"/>
		</linearGradient>
		<path d="m36.8-6.95v-0.5c-0.033-0.4-0.216-0.816-0.55-1.25-0.067-0.1-0.133-0.2-0.2-0.3-0.066-0.033-0.117-0.083-0.15-0.15l-0.55-0.35c-1.133-0.633-2.35-1.017-3.65-1.15-1.534-0.2-3.1-0.283-4.7-0.25h-4.3c-1.6 0-3.2 0.1-4.8 0.3-0.151 0.021-0.302 0.047-0.45 0.075-0.085 5e-3 -0.168 0.013-0.25 0.025v0.025c-4e-3 1.194-0.204 2.353-0.6 3.475-1.133 0.167-2.3 0.183-3.5 0.05l-0.25-0.5c-0.064-0.448-0.081-1.248-0.05-2.4-1e-3 -0.051-1e-3 -0.102 0-0.15h-1.4c-2.7 0-5.25 0.45-7.65 1.35-1.867 0.767-2.9 1.4-3.1 1.9-0.333 0.733-0.533 1.3-0.6 1.7-0.167 0.833 0 1.483 0.5 1.95 0.033 0.067 0.083 0.117 0.15 0.15 0.5 0.433 1.6 1.05 3.3 1.85l0.9 0.2c0.067-0.833 0.083-1.333 0.05-1.5 0-0.533 0.1-0.8 0.3-0.8l2.15 0.1c0.233 0 0.483 0.05 0.75 0.15 0.233 0.1 0.467 0.233 0.7 0.4 0.133 0.066 0.267 0.816 0.4 2.25h0.2c0.169 0.016 0.335 0.032 0.5 0.05 4.424 0.382 8.274 0.332 11.55-0.15l-0.25-2.3c0-0.466 0.233-0.75 0.7-0.85 1.066-0.233 1.9-0.35 2.5-0.35l1.4 0.05 0.55 2.775v0.025c0.074-0.021 0.149-0.037 0.225-0.05 4.235-1.18 6.894-2.146 7.975-2.9 1.1-0.733 1.75-1.333 1.95-1.8 0.167-0.433 0.25-0.817 0.25-1.15z" clip-rule="evenodd" fill="url(#ah)" fill-rule="evenodd"/>
</symbol>
<symbol id="av" viewBox="0 -99.2 68.2 99.2">
		<path d="m42.9-12.1c-1.133-1.233-1.65-1.483-1.55-0.75l0.45 1.45 6.85 8.9c-2-4.5-3.917-7.7-5.75-9.6zm10.15-8.6c2 1.8 5.15 3.8 9.45 6l-8.9-6.8c-0.434-0.267-0.9-0.467-1.4-0.6-0.667-0.167-0.383 0.3 0.85 1.4zm3.15-11.15c0.233 0.333 0.633 0.65 1.2 0.95l10.8 3.15c-4.3-2.433-7.733-3.917-10.3-4.45-1.667-0.3-2.233-0.183-1.7 0.35zm-6.55 4.3l2.7 1.05c-0.4-1.3-1-2-1.8-2.1-0.5 0-0.8 0.167-0.9 0.5v0.55zm10.2-18.7c1.367 0.3 3.267-0.083 5.7-1.15l-5.8-0.15c-0.333 0.167-0.567 0.333-0.7 0.5-0.333 0.367-0.067 0.633 0.8 0.8zm-8.9 1.6c-1.3 0.1-1.733 0.35-1.3 0.75 0.167 0.167 0.533 0.367 1.1 0.6l8.95 0.5c-3.667-1.333-6.583-1.95-8.75-1.85zm-19.4 44.4l0.4-4.2c0.233-3.033 0.2-5.383-0.1-7.05-0.3-1.633-0.617-2.133-0.95-1.5l-0.4 1.5 1.05 11.25zm-9-2.45c1.034-2 1.633-3.633 1.8-4.9 0.2-1.2 0.05-1.65-0.45-1.35l-0.8 0.85-2.05 8.1 1.5-2.7zm-13.35-21.2c3.2-0.3 5.517-0.733 6.95-1.3 1.533-0.533 1.95-0.933 1.25-1.2l-1.5-0.1-10.85 2.9 4.15-0.3zm-5.1-20.05c3.066 0.333 5.417 0.383 7.05 0.15 1.6-0.267 2.1-0.567 1.5-0.9-0.3-0.133-0.783-0.283-1.45-0.45l-11.2 0.6 4.1 0.6zm10.85 5.5c-0.1-0.167-0.3-0.316-0.6-0.45l-4.7 0.65 1.7 0.6c1.233 0.333 2.2 0.383 2.9 0.15 0.7-0.267 0.933-0.583 0.7-0.95zm10.05 1.2c1.633 0.433 2.967 0.6 4 0.5 0.967-0.167 1.3-0.433 1-0.8l-0.8-0.6-6.45 0.1 2.25 0.8zm13.4-31.9l0.65 0.45 5.1-0.6c-2.1-0.9-3.767-1.15-5-0.75-0.733 0.233-0.983 0.533-0.75 0.9zm-18.15 4.8c0.6 0.367 1.383 0.767 2.35 1.2 1.833 0.833 3.283 1.267 4.35 1.3 1.066 0 1.45-0.217 1.15-0.65-0.133-0.2-0.4-0.417-0.8-0.65l-7.05-1.2zm-1.4-7.45c1.3-0.1 1.733-0.35 1.3-0.75-0.1-0.1-0.467-0.317-1.1-0.65l-8.8-0.5 3.1 1c2.4 0.633 4.233 0.933 5.5 0.9zm-2.35 9.4c1.333-0.067 1.767-0.317 1.3-0.75-0.333-0.267-0.683-0.45-1.05-0.55l-8.85-0.5 3.1 1c2.5 0.633 4.333 0.9 5.5 0.8zm-0.5-27.8c2 1.133 3.633 1.8 4.9 2 1.3 0.233 1.767 0.067 1.4-0.5-0.2-0.3-0.5-0.55-0.9-0.75l-8.1-2.35 2.7 1.6zm24.45 8.9l8.35-3.35c-3.9 0.333-6.8 0.983-8.7 1.95-1.133 0.633-1.417 1.05-0.85 1.25 0.2 0.1 0.6 0.15 1.2 0.15zm-13.4 2.65c1.1 0.133 1.5-0.033 1.2-0.5-0.1-0.167-0.333-0.417-0.7-0.75l-6.95-1.8 2.25 1.4c1.767 1 3.167 1.55 4.2 1.65zm10.3-18.3l0.85 0.25 5.45-2.5c-2.633 0-4.566 0.383-5.8 1.15-0.733 0.533-0.9 0.9-0.5 1.1zm6 36.75c-1.2 0.4-1.55 0.75-1.05 1.05l1.2 0.3 8.75-1.9c-3.967-0.3-6.933-0.117-8.9 0.55zm6.85-32.35c-1.133 0.6-1.417 1.017-0.85 1.25 0.3 0.066 0.717 0.066 1.25 0l8.25-3.4c-3.9 0.4-6.783 1.117-8.65 2.15z" clip-rule="evenodd" fill="#4D120B" fill-rule="evenodd"/>
</symbol>
<symbol id="aw" viewBox="-19.75 -22.55 39.5 45.1">
	<g clip-rule="evenodd" fill-rule="evenodd">
				<path d="m-9.5-11.75c0.733 0.4 1.683 0.6 2.85 0.6 0.267 0 1.95-0.05 5.05-0.15 2.8-0.633 3.783-2.317 2.95-5.05-0.9-2.967-2.7-4.117-5.4-3.45-2.4 0.6-4.333 2.083-5.8 4.45-1.067 1.7-0.95 2.9 0.35 3.6z" fill="#414E20"/>
				<path d="m6.6 11.15c-0.167 0.1-0.35 0.2-0.55 0.3 0.233-0.7 0.434-1.45 0.6-2.25-0.133-1.633-0.583-3.917-1.35-6.85-1-3.867-2.55-8.8-4.65-14.8l-0.35-2.1c0.267-1.034 1.583-0.5 3.95 1.6 3.633 5.367 5.933 9.867 6.9 13.5 0.9 3.367 0.667 6.133-0.7 8.3-1.067 1.767-2.6 2.95-4.6 3.55 0.4-0.167 0.65-0.583 0.75-1.25zm-2.25 0.8c-0.667-1.434-1.333-3.25-2-5.45-1.8-5.8-2.8-11.4-3-16.8 1.367 2.7 2.767 7.667 4.2 14.9 0.967 4.9 1.233 7.35 0.8 7.35zm9.75-9.3c-0.067-2.867-0.8-5.967-2.2-9.3-1.667-3.733-3.65-6.583-5.95-8.55-0.733-0.5-1.767-1-3.1-1.5-2.7-0.966-5.283-1.183-7.75-0.65-2.367 0.434-4.25 1.733-5.65 3.9l-1.2 2.8c-0.833 3.333-1.067 7.1-0.7 11.3 0.4 3.6 1.233 6.5 2.5 8.7 1.4 2.367 3.367 3.85 5.9 4.45 2.466 0.6 5.733 0.383 9.8-0.65 2.767-0.7 4.833-1.883 6.2-3.55 1.433-1.7 2.15-4.017 2.15-6.95zm-15.8 11l-2.55-0.45c-1.833-0.6-3.217-1.517-4.15-2.75-1.2-1.633-1.983-4.034-2.35-7.2-0.367-3.367-0.3-7.85 0.2-13.45 0.867-3.7 2.667-5.316 5.4-4.85 1 0.133 1.816 0.6 2.45 1.4 0.633 0.8 0.85 1.566 0.65 2.3-0.5 2.4-0.284 6.633 0.65 12.7 0.833 5.533 2.333 9.25 4.5 11.15-1.3 0.867-2.9 1.25-4.8 1.15z" fill="#B2C271"/>
				<path d="m6.65 9.2c0.267-1.4 0.45-2.967 0.55-4.7 0.433-7.467-1.167-13.25-4.8-17.35 1.1 0.934 2.417 2.867 3.95 5.8 1.433 2.8 2.45 5.45 3.05 7.95 1.2 5.033 0.267 8.45-2.8 10.25-0.1 0.667-0.35 1.083-0.75 1.25 2-0.6 3.533-1.783 4.6-3.55 1.367-2.167 1.6-4.934 0.7-8.3-0.967-3.633-3.267-8.133-6.9-13.5-2.367-2.1-3.683-2.633-3.95-1.6l0.35 2.1c2.1 6 3.65 10.934 4.65 14.8 0.767 2.933 1.217 5.217 1.35 6.85zm-2.3 2.75c0.433 0 0.167-2.45-0.8-7.35-1.433-7.233-2.833-12.2-4.2-14.9 0.2 5.4 1.2 11 3 16.8 0.667 2.2 1.333 4.017 2 5.45zm-6.05 1.7c1.9 0.1 3.5-0.283 4.8-1.15-2.167-1.9-3.667-5.617-4.5-11.15-0.934-6.067-1.15-10.3-0.65-12.7 0.2-0.733-0.017-1.5-0.65-2.3s-1.45-1.267-2.45-1.4c-2.733-0.467-4.533 1.15-5.4 4.85-0.5 5.6-0.567 10.083-0.2 13.45 0.367 3.167 1.15 5.567 2.35 7.2 0.933 1.233 2.316 2.15 4.15 2.75l2.55 0.45zm-0.15-3.1c-1.2-1.667-2.117-4.217-2.75-7.65-0.667-3.667-1.066-8.683-1.2-15.05 0.433-1.233 0.833-1.65 1.2-1.25 0.333 5.7 0.883 10.733 1.65 15.1 1.034 6.367 2.467 10.083 4.3 11.15-1.1-0.167-2.167-0.933-3.2-2.3zm-4 0.8c-1.5-1.434-2.5-3.733-3-6.9-0.533-3.434-0.533-8.117 0-14.05l0.55-1.65c0.367 4.633 1 9.3 1.9 14 1.233 6 2.85 9.5 4.85 10.5-1.6-0.067-3.033-0.7-4.3-1.9z" fill="#8B9C6A"/>
				<path d="m6.6 11.15c3.066-1.8 4-5.217 2.8-10.25-0.6-2.5-1.617-5.15-3.05-7.95-1.533-2.934-2.85-4.867-3.95-5.8 3.633 4.1 5.233 9.883 4.8 17.35-0.1 1.733-0.283 3.3-0.55 4.7-0.167 0.8-0.367 1.55-0.6 2.25 0.2-0.1 0.383-0.2 0.55-0.3z" fill="#DCEAA9"/>
				<path d="m-5.85 11.35c1.267 1.2 2.7 1.833 4.3 1.9-2-1-3.617-4.5-4.85-10.5-0.9-4.7-1.533-9.367-1.9-14l-0.55 1.65c-0.533 5.934-0.533 10.617 0 14.05 0.5 3.167 1.5 5.467 3 6.9z" fill="#414E20"/>
				<path d="m-1.85 10.55c1.033 1.367 2.1 2.133 3.2 2.3-1.833-1.067-3.267-4.783-4.3-11.15-0.767-4.367-1.317-9.4-1.65-15.1-0.367-0.4-0.767 0.017-1.2 1.25 0.133 6.367 0.533 11.383 1.2 15.05 0.633 3.433 1.55 5.983 2.75 7.65z" fill="#5C6E37"/>
				<path d="m1.05 13.2c-0.2-1.4-0.483-1.833-0.85-1.3l-0.5 1.25 0.35 9.4c0.967-4.1 1.3-7.217 1-9.35zm3.1-9.55c-0.067 0.267-0.05 0.533 0.05 0.8l3.95 3.15c-0.8-2.067-1.767-3.417-2.9-4.05-0.667-0.333-1.033-0.3-1.1 0.1zm1.2 6.95l-0.3 1.15 1.8 8.4c0.367-3.767 0.217-6.6-0.45-8.5-0.433-1.267-0.783-1.617-1.05-1.05zm3.75 0.25l8.1 2.7c-2.967-2.167-5.5-3.483-7.6-3.95-1.267-0.267-1.717-0.133-1.35 0.4 0.1 0.133 0.383 0.417 0.85 0.85zm2.6-5.9c0.1 0.267 0.316 0.6 0.65 1l7.4 4.4c-2.533-2.867-4.733-4.684-6.6-5.45-1.2-0.567-1.683-0.55-1.45 0.05zm-0.6-4.5l8.05-2.9c-3.8 0.167-6.6 0.684-8.4 1.55-1.167 0.567-1.45 0.95-0.85 1.15 0.267 0.133 0.667 0.2 1.2 0.2zm-11-7.65l-3.85-1 1 1.05c0.8 0.7 1.533 1.083 2.2 1.15 0.667 0 0.966-0.2 0.9-0.6l-0.25-0.6zm2.1-4.2l1.2-11.15c-1.6 4.5-2.433 8.133-2.5 10.9-0.033 1.667 0.167 2.2 0.6 1.6l0.7-1.35zm3.8 7c1.9-1.934 4.033-4.983 6.4-9.15l-7.2 8.55c-0.333 0.567-0.55 1.033-0.65 1.4-0.2 0.7 0.283 0.433 1.45-0.8zm-25.75 12.15c4.2-0.2 7.283-0.767 9.25-1.7 1.3-0.6 1.633-1 1-1.2l-1.3-0.1-8.95 3zm5.2-5c2.7 0.467 4.667 0.617 5.9 0.45 1.4-0.133 1.85-0.4 1.35-0.8l-1.2-0.55-9.45 0.15 3.4 0.75zm6.35 6.25l-1.15 0.6-5.85 7.45c3.434-2.5 5.7-4.667 6.8-6.5 0.767-1.2 0.833-1.717 0.2-1.55zm-1.8-16.7l-8.05-4.9 2.5 2.45c1.867 1.767 3.433 2.95 4.7 3.55 1.333 0.6 1.867 0.6 1.6 0l-0.75-1.1zm6.9-7.15c0.934 0.567 1.367 0.567 1.3 0l-0.3-0.95-5.6-4.3 1.5 2.15c1.167 1.567 2.2 2.6 3.1 3.1z" fill="#4D120B"/>
	</g>
</symbol>
<symbol id="ax" viewBox="-21.378 -20.15 42.778 40.25">
	<g clip-rule="evenodd" fill-rule="evenodd">
				<path d="m-19.25 2c0.833 0.633 1.517 0.75 2.05 0.35 1.934-1.3 3.35-2.883 4.25-4.75 1.3-2.7 1.2-5.517-0.3-8.45-1.6-3.133-3.467-3.15-5.6-0.05-2.133 3-2.917 6.033-2.35 9.1 0.333 1.767 0.983 3.033 1.95 3.8z" fill="#414E20"/>
				<path d="m14.25 7.05c-0.733 1.267-2.067 2.2-4 2.8-2.267 0.633-5.233 0.483-8.9-0.45-3.967-1.067-9.05-3.117-15.25-6.15l-1.55-1.2c5.6 1.833 10.967 3.333 16.1 4.5 7.067 1.6 11.6 1.767 13.6 0.5zm0.35 0.3c0.967-1.567 1.3-3.083 1-4.55-3.1 0.967-7.833 0.617-14.2-1.05-7.167-1.933-11.867-3.6-14.1-5-0.733-0.5-1.683-0.65-2.85-0.45s-2.034 0.684-2.6 1.45c-1.767 2.067-0.833 4.283 2.8 6.65 5.833 2.9 10.683 4.917 14.55 6.05 3.6 1.066 6.566 1.45 8.9 1.15 1.7-0.233 3.333-1 4.9-2.3l1.6-1.95zm0.55-2.95c-0.7 0.9-2.033 1.467-4 1.7-2.333 0.3-5.517-0.033-9.55-1-4.3-1.033-9.934-2.883-16.9-5.55-1.133-0.933-1.417-1.466-0.85-1.6 6.1 2.133 11.817 3.883 17.15 5.25 7.433 1.867 12.15 2.267 14.15 1.2zm0.4-2.9c0.167-0.367-2.617-1.217-8.35-2.55-8.767-1.933-14.817-2.917-18.15-2.95 5.933 2.167 12.483 3.767 19.65 4.8 2.433 0.333 4.717 0.567 6.85 0.7zm0.2-2.3c0.667 0.4 1 0.8 1 1.2 0.2-1.933-0.4-3.75-1.8-5.45-1.733-2.067-4.65-3.467-8.75-4.2-4.4-0.767-10.333-0.783-17.8-0.05-3.333 1.1-4.517 2-3.55 2.7l2.4 0.6c7.467 0.833 13.55 1.667 18.25 2.5 3.4 0.6 6.05 1.183 7.95 1.75-1.4-0.8-2.967-1.617-4.7-2.45-7.967-3.566-15-4.733-21.1-3.5 1.767-0.533 4.483-0.8 8.15-0.8 3.733 0 7.067 0.3 10 0.9 6.033 1.2 9.35 3.467 9.95 6.8z" fill="#8B9C6A"/>
				<path d="m15.15 4.4c-2 1.067-6.717 0.667-14.15-1.2-5.333-1.367-11.05-3.117-17.15-5.25-0.567 0.133-0.283 0.667 0.85 1.6 6.967 2.667 12.6 4.517 16.9 5.55 4.033 0.967 7.217 1.3 9.55 1 1.967-0.233 3.3-0.8 4-1.7z" fill="#5C6E37"/>
				<path d="m17.5 0.85c0.5-2.667 0.167-4.934-1-6.8-1.233-1.966-3.45-3.583-6.65-4.85-3.1-1.233-6.8-1.967-11.1-2.2-4.833-0.2-8.833 0.233-12 1.3-0.967 0.4-1.983 1.067-3.05 2-2.267 1.8-3.7 3.867-4.3 6.2-0.6 2.233-0.033 4.4 1.7 6.5l2.5 2.25c3.367 2.2 7.367 4.033 12 5.5 4.1 1.267 7.633 1.817 10.6 1.65 3.233-0.167 5.75-1.167 7.55-3 1.767-1.833 3.017-4.683 3.75-8.55zm-2.9 6.5l-1.6 1.95c-1.567 1.3-3.2 2.067-4.9 2.3-2.333 0.3-5.3-0.083-8.9-1.15-3.867-1.133-8.717-3.15-14.55-6.05-3.633-2.367-4.566-4.583-2.8-6.65 0.566-0.767 1.433-1.25 2.6-1.45s2.117-0.05 2.85 0.45c2.233 1.4 6.934 3.067 14.1 5 6.367 1.667 11.1 2.017 14.2 1.05 0.3 1.467-0.033 2.983-1 4.55zm1.15-8.15c0.033 0.233 0.05 0.45 0.05 0.65-0.733-0.533-1.517-1.067-2.35-1.6-1.9-0.567-4.55-1.15-7.95-1.75-4.7-0.833-10.783-1.667-18.25-2.5l-2.4-0.6c-0.967-0.7 0.217-1.6 3.55-2.7 7.467-0.733 13.4-0.717 17.8 0.05 4.1 0.733 7.017 2.133 8.75 4.2 1.4 1.7 2 3.517 1.8 5.45 0-0.4-0.333-0.8-1-1.2zm-0.2 2.3c-2.133-0.133-4.417-0.367-6.85-0.7-7.167-1.033-13.717-2.633-19.65-4.8 3.333 0.033 9.383 1.017 18.15 2.95 5.733 1.333 8.517 2.183 8.35 2.55z" fill="#B2C271"/>
				<path d="m14.25 7.05c-2 1.267-6.533 1.1-13.6-0.5-5.133-1.167-10.5-2.667-16.1-4.5l1.55 1.2c6.2 3.033 11.283 5.083 15.25 6.15 3.667 0.934 6.633 1.083 8.9 0.45 1.933-0.6 3.267-1.533 4-2.8z" fill="#414E20"/>
				<path d="m15.75-0.8c-0.6-3.333-3.917-5.6-9.95-6.8-2.933-0.6-6.267-0.9-10-0.9-3.667 0-6.383 0.267-8.15 0.8 6.1-1.233 13.133-0.066 21.1 3.5 1.733 0.833 3.3 1.65 4.7 2.45 0.833 0.533 1.617 1.067 2.35 1.6 0-0.2-0.017-0.417-0.05-0.65z" fill="#DCEAA9"/>
				<path d="m2.85 9.8l-0.2 1.3 2.6 9c0-4.167-0.417-7.25-1.25-9.25-0.533-1.333-0.917-1.683-1.15-1.05zm8.8-5.1c-1.233-0.633-1.75-0.65-1.55-0.05l0.7 1.15 7.85 5.25c-2.7-3.2-5.033-5.317-7-6.35zm9.05-0.6c-2.7-2.434-5.1-3.983-7.2-4.65-1.233-0.367-1.717-0.284-1.45 0.25l0.75 0.9 7.9 3.5zm-9.5-12.85c0.267 0.1 0.667 0.117 1.2 0.05l7.9-3.45c-3.667 0.4-6.433 1.117-8.3 2.15-1.067 0.633-1.333 1.05-0.8 1.25zm3.25 5.55l6.95-5c-3.6 1.233-6.15 2.517-7.65 3.85-0.9 0.9-1.067 1.35-0.5 1.35 0.367 0 0.767-0.067 1.2-0.2zm-7.25-7.7l2.35-8.25c-2.1 3.2-3.316 5.783-3.65 7.75-0.2 1.233-0.05 1.683 0.45 1.35 0.233-0.1 0.517-0.383 0.85-0.85zm-6.9 1.3c-0.466-2.7-1.7-6.217-3.7-10.55l2.75 10.9c0.267 0.633 0.517 1.067 0.75 1.3 0.433 0.6 0.5 0.05 0.2-1.65zm5.45 6.2c0.1 0.133 0.317 0.283 0.65 0.45l4.85-1.4c-2.133-0.566-3.783-0.566-4.95 0-0.7 0.367-0.883 0.683-0.55 0.95zm-17.1 6.2c1.267-0.7 1.567-1.15 0.9-1.35l-1.3-0.05-8.7 3.7 3.45-0.55c2.533-0.5 4.417-1.083 5.65-1.75zm8.2 3.05l-5.4 7.75 2.6-2.3c1.867-1.833 3.15-3.367 3.85-4.6 0.733-1.233 0.767-1.75 0.1-1.55l-1.15 0.7zm1.85 2.5l-0.85 1-2.8 9c2.3-3.467 3.65-6.3 4.05-8.5 0.3-1.367 0.167-1.867-0.4-1.5zm-3.55-13.55c0.4-0.5 0.417-0.883 0.05-1.15l-0.65-0.1-3.05 2.55 1.45-0.25c1.067-0.2 1.8-0.55 2.2-1.05zm-2.05-4.05l-0.7-1.35-8.35-7.55c2.8 4.033 5.267 6.85 7.4 8.45 1.367 1.067 1.917 1.217 1.65 0.45zm-5.85-0.15l-0.95-0.25-6.75 2h2.6c1.9 0 3.35-0.233 4.35-0.7 1-0.4 1.25-0.75 0.75-1.05z" fill="#4D120B"/>
	</g>
</symbol>
<symbol id="ay" viewBox="-3.878 -4.11 7.806 11.039">
		<g clip-rule="evenodd" fill-rule="evenodd">
			<path d="m3.45-0.35c-0.333-0.733-0.8-1.367-1.4-1.9-0.467-0.4-0.95-0.667-1.45-0.8-0.467-0.133-0.967-0.133-1.5 0-0.753 0.17-1.378 0.578-1.875 1.225-0.196 0.242-0.371 0.517-0.525 0.825-0.567 1.167-0.717 2.433-0.45 3.8s0.85 2.433 1.75 3.2c0.933 0.8 1.917 1.083 2.95 0.85 1.033-0.267 1.833-0.967 2.4-2.1s0.717-2.383 0.45-3.75c-0.067-0.467-0.183-0.917-0.35-1.35zm-0.35 1.75c0.233 1.167 0.066 2.25-0.5 3.25-0.533 0.967-1.25 1.567-2.15 1.8-0.833 0.2-1.583-0.05-2.25-0.75-0.633-0.667-1.05-1.617-1.25-2.85-0.233-1.2-0.133-2.3 0.3-3.3 0.467-1 1.117-1.6 1.95-1.8 0.867-0.2 1.667 0.05 2.4 0.75 0.767 0.7 1.267 1.667 1.5 2.9z" fill="#8B9C6A"/>
				<linearGradient id="ai" x1="10425" x2="10430" y1="-19275" y2="-19275" gradientTransform="matrix(-.8592 -.5117 .5499 -.8364 19560 -10783)" gradientUnits="userSpaceOnUse">
				<stop stop-color="#232916" offset="0"/>
				<stop stop-color="#414E20" offset=".9882"/>
			</linearGradient>
			<path d="m3.1 1.4c-0.233-1.233-0.733-2.2-1.5-2.9-0.733-0.7-1.533-0.95-2.4-0.75-0.833 0.2-1.483 0.8-1.95 1.8-0.433 1-0.533 2.1-0.3 3.3 0.2 1.233 0.617 2.183 1.25 2.85 0.667 0.7 1.417 0.95 2.25 0.75 0.9-0.233 1.617-0.833 2.15-1.8 0.567-1 0.733-2.083 0.5-3.25z" fill="url(#ai)"/>
			<path d="m-2.775-1.825c0.497-0.647 1.122-1.055 1.875-1.225 0.533-0.133 1.033-0.133 1.5 0 0.5 0.133 0.983 0.4 1.45 0.8 0.6 0.533 1.067 1.167 1.4 1.9l0.05-0.6c0-0.419-0.033-0.794-0.1-1.125l-0.25-0.875c-1.233-1.233-2.566-1.483-4-0.75-0.4 0.167-0.767 0.284-1.1 0.35l-0.825 1.525z" fill="#414E20"/>
		</g>
</symbol>
<symbol id="az" viewBox="-5 -6.62 10 13.47">
		<g clip-rule="evenodd" fill-rule="evenodd">
				<linearGradient id="aj" x1="6260.9" x2="6267.9" y1="-19472" y2="-19472" gradientTransform="matrix(-.585 -.8111 .8111 -.585 19458 -6308.8)" gradientUnits="userSpaceOnUse">
				<stop stop-color="#232916" offset="0"/>
				<stop stop-color="#414E20" offset=".9882"/>
			</linearGradient>
			<path d="m3.05 4.1c0.567-0.867 0.85-1.983 0.85-3.35 0-1.333-0.35-2.483-1.05-3.45-0.733-0.933-1.6-1.4-2.6-1.4-1.033 0-1.9 0.467-2.6 1.4-0.733 0.967-1.1 2.117-1.1 3.45 0 1.3 0.434 2.417 1.3 3.35 0.8 0.9 1.733 1.35 2.8 1.35 1 0 1.8-0.45 2.4-1.35z" fill="url(#aj)"/>
			<path d="m4.4-2.2c-0.233-0.5-0.517-0.967-0.85-1.4-1-1.233-2.183-1.85-3.55-1.85h-0.3c-1.233 0.1-2.317 0.717-3.25 1.85-0.125 0.156-0.242 0.314-0.35 0.475-0.733 1.108-1.1 2.417-1.1 3.925 0 1.667 0.583 3.1 1.75 4.3 1.1 1.167 2.367 1.75 3.8 1.75 1.367 0 2.45-0.583 3.25-1.75 0.8-1.1 1.2-2.533 1.2-4.3 0-1.1-0.2-2.1-0.6-3zm-1.35 6.3c-0.6 0.9-1.4 1.35-2.4 1.35-1.066 0-2-0.45-2.8-1.35-0.867-0.934-1.3-2.05-1.3-3.35 0-1.333 0.367-2.483 1.1-3.45 0.7-0.933 1.567-1.4 2.6-1.4 1 0 1.867 0.467 2.6 1.4 0.7 0.967 1.05 2.117 1.05 3.45 0 1.367-0.283 2.483-0.85 3.35z" fill="#B2C271"/>
			<path d="m4.4-2.2c-0.167-0.8-0.45-1.617-0.85-2.45-0.348-0.799-0.682-1.299-1-1.5-1.242-0.592-2.441-0.625-3.6-0.1-1.067 0.6-1.883 1.35-2.45 2.25-0.167 0.3-0.3 0.592-0.4 0.875 0.108-0.161 0.225-0.319 0.35-0.475 0.933-1.133 2.017-1.75 3.25-1.85h0.3c1.367 0 2.55 0.617 3.55 1.85 0.333 0.433 0.617 0.9 0.85 1.4z" fill="#8B9C6A"/>
		</g>
</symbol>
<symbol id="ba" viewBox="-19.6 -16.45 39.25 32.9">
	<g clip-rule="evenodd" fill-rule="evenodd">
				<path d="m10.05 8.4c2.567-1.1 4.333-2.6 5.3-4.5 0.933-1.9 1.183-4.367 0.75-7.4-0.3-2.133-1.184-3.733-2.65-4.8-1.567-1.133-3.833-1.733-6.8-1.8-3.066 0-6.483 0.5-10.25 1.5-4.433 1.267-7.933 2.817-10.5 4.65-0.733 0.6-1.483 1.45-2.25 2.55-1.566 2.233-2.233 4.367-2 6.4 0.167 1.967 1.4 3.483 3.7 4.55l3 0.9c3.933 0.566 8.033 0.617 12.3 0.15 3.833-0.4 6.967-1.133 9.4-2.2zm5.45-6.25l-0.8 1.9c-0.867 1.367-1.983 2.417-3.35 3.15-3.7 1.966-11.133 2.7-22.3 2.2-2-0.267-3.4-0.767-4.2-1.5-0.833-0.733-1-1.65-0.5-2.75 0.3-0.833 0.95-1.5 1.95-2 0.934-0.5 1.85-0.7 2.75-0.6 2.567 0.4 7.233 0.2 14-0.6 5.833-0.667 9.833-1.817 12-3.45 0.667 0.933 0.817 2.15 0.45 3.65zm-1.25-6.35c0.067 0.167 0.133 0.317 0.2 0.45-0.733-0.167-1.5-0.333-2.3-0.5-1.7 0.1-4.066 0.433-7.1 1-5.433 1-11.05 2.217-16.85 3.65l-2.45 0.3c-1.133-0.233-0.317-1.317 2.45-3.25 6.433-2.8 11.667-4.55 15.7-5.25 3.733-0.667 6.6-0.45 8.6 0.65 1.6 0.9 2.55 2.083 2.85 3.55-0.1-0.267-0.467-0.467-1.1-0.6zm-7.1 2.3c5.067-0.667 7.583-0.85 7.55-0.55-1.5 0.467-3.417 0.967-5.75 1.5-6.467 1.433-12.633 2.217-18.5 2.35 3.233-1.067 8.8-2.167 16.7-3.3z" fill="#B2C271"/>
				<path d="m15.15 2c-0.233 1.2-1.066 2.283-2.5 3.25-1.667 1.2-4.2 2.017-7.6 2.45-3.667 0.5-8.683 0.617-15.05 0.35l-1.75-0.4c5.333-0.4 10.5-1 15.5-1.8 6.367-1.033 10.167-2.317 11.4-3.85zm0.35 0.15c0.367-1.5 0.217-2.717-0.45-3.65-2.167 1.633-6.167 2.783-12 3.45-6.767 0.8-11.433 1-14 0.6-0.9-0.1-1.816 0.1-2.75 0.6-1 0.5-1.65 1.167-1.95 2-0.5 1.1-0.333 2.017 0.5 2.75 0.8 0.733 2.2 1.233 4.2 1.5 11.167 0.5 18.6-0.233 22.3-2.2 1.367-0.733 2.483-1.784 3.35-3.15l0.8-1.9zm-3.35-6.4c-1.4-0.2-2.917-0.35-4.55-0.45-7.933-0.433-14.467 0.783-19.6 3.65 1.233-0.867 3.617-1.917 7.15-3.15 3.3-1.1 6.3-1.85 9-2.25 5.367-0.867 8.733-0.117 10.1 2.25 0.633 0.133 1 0.333 1.1 0.6-0.3-1.467-1.25-2.65-2.85-3.55-2-1.1-4.867-1.317-8.6-0.65-4.033 0.7-9.267 2.45-15.7 5.25-2.767 1.933-3.583 3.017-2.45 3.25l2.45-0.3c5.8-1.433 11.417-2.65 16.85-3.65 3.033-0.567 5.4-0.9 7.1-1zm-5 2.35c-7.9 1.133-13.467 2.233-16.7 3.3 5.867-0.133 12.033-0.917 18.5-2.35 2.333-0.533 4.25-1.033 5.75-1.5 0.033-0.3-2.483-0.117-7.55 0.55zm-4 5.1c6.733-0.9 10.733-2.034 12-3.4-0.3 0.833-1.217 1.65-2.75 2.45-3.7 1.867-11.983 2.983-24.85 3.35-1.333-0.333-1.75-0.65-1.25-0.95 6.2-0.333 11.817-0.817 16.85-1.45z" fill="#8B9C6A"/>
				<path d="m15.15 2c-1.233 1.533-5.033 2.817-11.4 3.85-5 0.8-10.167 1.4-15.5 1.8l1.75 0.4c6.367 0.267 11.383 0.15 15.05-0.35 3.4-0.434 5.934-1.25 7.6-2.45 1.433-0.967 2.267-2.05 2.5-3.25z" fill="#414E20"/>
				<path d="m12.15-4.25c0.8 0.167 1.567 0.333 2.3 0.5-0.067-0.133-0.133-0.283-0.2-0.45-1.367-2.367-4.733-3.117-10.1-2.25-2.7 0.4-5.7 1.15-9 2.25-3.533 1.233-5.917 2.283-7.15 3.15 5.133-2.867 11.667-4.083 19.6-3.65 1.633 0.1 3.15 0.25 4.55 0.45z" fill="#DCEAA9"/>
				<path d="m3.15 3.2c-5.033 0.633-10.65 1.117-16.85 1.45-0.5 0.3-0.083 0.617 1.25 0.95 12.867-0.367 21.15-1.483 24.85-3.35 1.533-0.8 2.45-1.617 2.75-2.45-1.267 1.367-5.267 2.5-12 3.4z" fill="#5C6E37"/>
				<path d="m2.65 7.8l-0.45 1.05 0.2 7.6c0.967-3.3 1.317-5.85 1.05-7.65-0.2-1.1-0.467-1.433-0.8-1zm3.9-0.25l0.2 1 4.6 5.8c-1.1-3-2.283-5.133-3.55-6.4-0.8-0.8-1.217-0.933-1.25-0.4zm-6.2-1.05l-2.45 7.6 1.6-2.6c1.067-1.9 1.733-3.45 2-4.65 0.233-1.133 0.117-1.533-0.35-1.2l-0.8 0.85zm19.3-2.9c-3-1.533-5.417-2.367-7.25-2.5-1.2-0.1-1.617 0.033-1.25 0.4l0.85 0.6 7.65 1.5zm-2.8-14.9c-2.6 1.867-4.317 3.55-5.15 5.05-0.567 0.933-0.583 1.317-0.05 1.15l0.95-0.5 4.25-5.7zm-5.45 8.55l0.85 0.45 7.2 0.25c-2.9-1.034-5.217-1.467-6.95-1.3-1.1 0.1-1.467 0.3-1.1 0.6zm-2-6.45l5.5-4.75c-2.933 1.3-5 2.6-6.2 3.9-0.767 0.833-0.867 1.217-0.3 1.15 0.267 0 0.6-0.1 1-0.3zm-3.9 5.1c-0.5 0.467-0.567 0.75-0.2 0.85 0.167 0.1 0.383 0.15 0.65 0.15l3.7-2.45c-2 0.2-3.383 0.683-4.15 1.45zm-1.55-4.4l0.45-0.9-0.35-7.05c-0.833 3-1.133 5.35-0.9 7.05 0.2 1 0.467 1.3 0.8 0.9zm-12.55 14.4l-6.85 5.8 3.05-1.65c2.1-1.167 3.633-2.233 4.6-3.2 0.933-0.967 1.066-1.4 0.4-1.3l-1.2 0.35zm2.55-5.8c0.8-0.434 1.35-0.95 1.65-1.55 0.167-0.533 0.066-0.816-0.3-0.85l-0.65 0.05-1.95 2.95 1.25-0.6zm-11.05 0.65c1.833-0.667 3.117-1.317 3.85-1.95 0.767-0.667 0.883-1.017 0.35-1.05l-0.95 0.05-5.75 3.75 2.5-0.8zm15.9-7.15c-1.1-1.833-3.25-4.267-6.45-7.3l5.7 7.85 1.05 0.8c0.567 0.3 0.467-0.15-0.3-1.35zm-7.35 1.6l-10.2-3.55c3.9 2.434 7.1 3.95 9.6 4.55 1.566 0.333 2.117 0.283 1.65-0.15l-1.05-0.85z" fill="#4D120B"/>
	</g>
</symbol>
<symbol id="bb" viewBox="-17.75 -20.05 35.55 40.05">
	<g clip-rule="evenodd" fill-rule="evenodd">
				<path d="m10.7-10.55c0-1.034-0.35-2.167-1.05-3.4-1.066-1.966-2.717-3.117-4.95-3.45-3.034-0.434-5.067-0.517-6.1-0.25-1.333 0.367-1.383 1.35-0.15 2.95 1.133 1.467 3.15 2.717 6.05 3.75 2.4 0.833 4.05 1.184 4.95 1.05l0.65-0.05c0.4-0.067 0.6-0.267 0.6-0.6z" fill="#414E20"/>
				<path d="m4.5 9.45c0.567-1.2 1.067-2.55 1.5-4.05 2.067-6.6 1.983-12.15-0.25-16.65 0.767 1.133 1.467 3.167 2.1 6.1 0.6 2.933 0.883 5.533 0.85 7.8-0.133 4.8-1.7 7.667-4.7 8.6-0.233 0.567-0.533 0.883-0.9 0.95 1.8-0.1 3.383-0.817 4.75-2.15 1.633-1.633 2.45-4.083 2.45-7.35-0.033-3.5-1-8.05-2.9-13.65-1.566-2.4-2.6-3.167-3.1-2.3l-0.15 1.95c0.467 5.8 0.7 10.567 0.7 14.3 0 2.8-0.117 4.95-0.35 6.45zm-2.6 2c0.367 0.033 0.684-2.217 0.95-6.75 0.367-6.9 0.283-11.683-0.25-14.35-1.033 4.733-1.433 9.983-1.2 15.75 0.067 1.8 0.233 3.583 0.5 5.35zm-0.35-24.6c-0.333-0.867-0.933-1.467-1.8-1.8-2.233-1-4.117 0.05-5.65 3.15-3.2 9.2-4.117 15.533-2.75 19 0.5 1.333 1.483 2.483 2.95 3.45l2.05 0.95c1.6 0.5 3.05 0.517 4.35 0.05-1.434-2.133-1.883-5.8-1.35-11 0.6-5.867 1.367-9.717 2.3-11.55 0.333-0.7 0.3-1.45-0.1-2.25zm-3.6 13.7c-0.5 5.967-0.1 9.65 1.2 11.05-0.9-0.367-1.65-1.3-2.25-2.8-1.367-3.533-0.8-10.633 1.7-21.3 0.667-1.033 1.1-1.317 1.3-0.85-0.9 4.8-1.55 9.433-1.95 13.9zm-1.4 10.75c-1.333-0.4-2.417-1.283-3.25-2.65-0.966-1.667-1.316-3.967-1.05-6.9 0.3-3.2 1.35-7.4 3.15-12.6l0.85-1.35c-0.767 4.4-1.267 8.717-1.5 12.95-0.267 5.7 0.333 9.217 1.8 10.55z" fill="#8B9C6A"/>
				<path d="m4 11.25c-0.167 0.067-0.333 0.117-0.5 0.15 0.333-0.6 0.667-1.25 1-1.95 0.233-1.5 0.35-3.65 0.35-6.45 0-3.733-0.233-8.5-0.7-14.3l0.15-1.95c0.5-0.867 1.534-0.1 3.1 2.3 1.9 5.6 2.867 10.15 2.9 13.65 0 3.267-0.816 5.716-2.45 7.35-1.367 1.333-2.95 2.05-4.75 2.15 0.367-0.067 0.667-0.383 0.9-0.95zm-2.1 0.2c-0.267-1.767-0.433-3.55-0.5-5.35-0.233-5.767 0.167-11.017 1.2-15.75 0.533 2.667 0.617 7.45 0.25 14.35-0.267 4.533-0.583 6.783-0.95 6.75zm7.05-0.35c1.6-1.233 2.716-3.167 3.35-5.8s0.7-5.583 0.2-8.85c-0.567-3.733-1.617-6.733-3.15-9-0.567-0.667-1.35-1.35-2.35-2.05-2-1.467-4.167-2.25-6.5-2.35-2.133-0.167-4.033 0.583-5.7 2.25l-1.65 2.2c-1.5 2.867-2.533 6.2-3.1 10-0.466 3.333-0.4 6.133 0.2 8.4 0.667 2.467 2.017 4.25 4.05 5.35 2 1.067 4.85 1.6 8.55 1.6 2.533 0 4.567-0.583 6.1-1.75zm-7.4-24.25c0.4 0.8 0.434 1.55 0.1 2.25-0.933 1.833-1.7 5.683-2.3 11.55-0.533 5.2-0.083 8.867 1.35 11-1.3 0.467-2.75 0.45-4.35-0.05l-2.05-0.95c-1.467-0.967-2.45-2.117-2.95-3.45-1.367-3.467-0.45-9.8 2.75-19 1.533-3.1 3.417-4.15 5.65-3.15 0.867 0.333 1.467 0.933 1.8 1.8z" fill="#B2C271"/>
				<path d="m4.5 9.45c-0.333 0.7-0.667 1.35-1 1.95 0.167-0.033 0.333-0.083 0.5-0.15 3-0.933 4.567-3.8 4.7-8.6 0.033-2.267-0.25-4.867-0.85-7.8-0.633-2.934-1.333-4.967-2.1-6.1 2.233 4.5 2.317 10.05 0.25 16.65-0.433 1.5-0.933 2.85-1.5 4.05z" fill="#DCEAA9"/>
				<path d="m-3.45 11.3c-1.466-1.333-2.066-4.85-1.8-10.55 0.233-4.233 0.733-8.55 1.5-12.95l-0.85 1.35c-1.8 5.2-2.85 9.4-3.15 12.6-0.267 2.933 0.083 5.233 1.05 6.9 0.833 1.367 1.917 2.25 3.25 2.65z" fill="#414E20"/>
				<path d="m-2.05 0.55c0.4-4.466 1.05-9.1 1.95-13.9-0.2-0.467-0.633-0.183-1.3 0.85-2.5 10.667-3.067 17.767-1.7 21.3 0.6 1.5 1.35 2.434 2.25 2.8-1.3-1.4-1.7-5.083-1.2-11.05z" fill="#5C6E37"/>
				<path d="m10.1 7.85l5.35 5.6c-1.434-3-2.9-5.133-4.4-6.4-0.867-0.667-1.3-0.75-1.3-0.25 0.067 0.333 0.183 0.683 0.35 1.05zm-3.9 3.65l6.35 4.25c-2.1-2.667-3.966-4.417-5.6-5.25-1-0.467-1.434-0.45-1.3 0.05l0.55 0.95zm-3.15-1.05l-0.5 0.95-0.3 8c1.1-3.333 1.583-5.933 1.45-7.8-0.033-1.2-0.25-1.583-0.65-1.15zm0.55-6.5c-0.1 0.2-0.15 0.433-0.15 0.7l2.7 3.7c-0.267-2.067-0.8-3.483-1.6-4.25-0.533-0.467-0.85-0.517-0.95-0.15zm6.6-2.6c-1.1 0.267-1.417 0.55-0.95 0.85l1 0.45 7.55-0.85c-3.267-0.7-5.8-0.85-7.6-0.45zm-4.95-11.35l3.55-9.75c-2.466 3.767-4 6.85-4.6 9.25-0.4 1.5-0.35 2.017 0.15 1.55l0.9-1.05zm0.3 7.5c-0.3 0.567 0.167 0.45 1.4-0.35 2-1.3 4.517-3.566 7.55-6.8l-8.1 6.05c-0.3 0.3-0.583 0.667-0.85 1.1zm-2.9-3.6l-0.1-0.65-3.1-1.7 0.65 1.15c0.566 0.867 1.1 1.367 1.6 1.5 0.533 0.133 0.85 0.033 0.95-0.3zm-0.05-7.9l-0.05-0.9-3.85-5.15 0.8 2.25c0.667 1.733 1.333 2.9 2 3.5 0.633 0.7 1 0.8 1.1 0.3zm-8.55 14.25l-0.9-0.75-8.1-2 2.7 1.45c2 0.966 3.667 1.55 5 1.75 1.2 0.133 1.633-0.017 1.3-0.45zm-2.4 1.7l-1.1-0.4-8.3 0.7c3.6 0.767 6.367 0.95 8.3 0.55 1.167-0.233 1.533-0.517 1.1-0.85zm6 9.5l-1.8 8.55c1.767-3.433 2.75-6.167 2.95-8.2 0.167-1.267 0.017-1.716-0.45-1.35l-0.7 1zm-5.85-5.45l-1.1 0.25-6.65 5.35c3.4-1.4 5.817-2.817 7.25-4.25 0.9-0.9 1.067-1.35 0.5-1.35zm2.2-15.45l-5.8-6.2 1.6 2.8c1.167 1.934 2.25 3.35 3.25 4.25 0.967 0.8 1.417 0.9 1.35 0.3l-0.4-1.15z" fill="#4D120B"/>
	</g>
</symbol>
<symbol viewBox="-212.878 129.53 32.228 13.47">
			<use transform="translate(-209 135.9)" x="-3.878" y="-4.11" width="7.806" height="11.039" xlink:href="#ay"/>
			<use transform="translate(-185.65 136.15)" x="-5" y="-6.62" width="10" height="13.47" xlink:href="#az"/>
</symbol>
<symbol viewBox="-256.1 84.8 51.75 57.351">
			<use transform="translate(-224 101.25)" x="-19.6" y="-16.45" width="39.25" height="32.9" xlink:href="#ba"/>
			<use transform="translate(-238.35 122.15)" x="-17.75" y="-20.05" width="35.55" height="40.05" xlink:href="#bb"/>
</symbol>
<symbol viewBox="-179.329 79.75 58.279 61.899">
			<use transform="translate(-157.95 99.9)" x="-21.378" y="-20.15" width="42.778" height="40.25" xlink:href="#ax"/>
			<use transform="translate(-140.8 119.1)" x="-19.75" y="-22.55" width="39.5" height="45.1" xlink:href="#aw"/>
</symbol>
<symbol viewBox="-214.9 164.41 60.507 8.155">
			<use transform="matrix(.7745 .63 -.63 .7745 -161.7 165.3)" y="-4.669" width="6.073" height="4.669" xlink:href="#ae"/>
			<use transform="translate(-174.75 172.55)" y="-4.65" width="8.134" height="4.665" xlink:href="#ag"/>
			<use transform="translate(-214.9 172.55)" y="-3.064" width="8.8" height="3.039" xlink:href="#af"/>
</symbol>
<symbol id="bc" viewBox="0 -3.6 18.8 3.6">
	<g clip-rule="evenodd" fill-rule="evenodd">
		<path d="m0.35-0.05c0.233 0.033 0.483 0.05 0.75 0.05-0.133-1.433-0.267-2.183-0.4-2.25-0.233-0.167-0.467-0.3-0.7-0.4 0.133 1.133 0.25 2 0.35 2.6z" fill="#B2C271"/>
		<path d="m18.2-0.7c0.2-0.066 0.4-0.15 0.6-0.25l-0.45-2.25-0.65-0.35h-0.05l-0.05-0.05v0.05l0.6 2.85z" fill="#CFE08A"/>
	</g>
</symbol>
<symbol id="bd" viewBox="-0.004 -8.806 36.105 8.806">
		<path d="m12.15-6.9h1.35c0.033-0.3 0.033-0.583 0-0.85-0.6 0.033-1.367 0.067-2.3 0.1-2.7 0.033-5.2 0.533-7.5 1.5-1.8 0.767-2.817 1.417-3.05 1.95-0.333 0.733-0.533 1.3-0.6 1.7-0.167 0.9 0.05 1.6 0.65 2.1 0.1 0.1 0.3 0.233 0.6 0.4-0.5-0.467-0.667-1.117-0.5-1.95 0.067-0.4 0.267-0.966 0.6-1.7 0.2-0.5 1.233-1.133 3.1-1.9 2.4-0.9 4.95-1.35 7.65-1.35zm20.35-1.15c-1.333-0.434-2.75-0.65-4.25-0.65-1.567 0-3.1-0.017-4.6-0.05-1.566-0.1-3.117-0.067-4.65 0.1-0.7 0.1-1.383 0.183-2.05 0.25 0 1.3-0.15 2.566-0.45 3.8l-2.9 0.25 0.25 0.5c1.2 0.133 2.367 0.117 3.5-0.05 0.4-1.133 0.6-2.3 0.6-3.5 0.233-0.033 0.466-0.067 0.7-0.1 1.6-0.2 3.2-0.3 4.8-0.3h4.3c1.6-0.034 3.167 0.05 4.7 0.25 1.3 0.133 2.517 0.517 3.65 1.15-1.133-0.667-2.333-1.217-3.6-1.65z" clip-rule="evenodd" fill="#B2C271" fill-rule="evenodd"/>
</symbol>
<symbol id="ae" viewBox="0 -4.669 6.073 4.669">
	<g clip-rule="evenodd" fill-rule="evenodd">
		<path d="m5.25-4.65c-0.8-0.1-1.417 0.2-1.85 0.9-0.5 0.8-1.083 1.567-1.75 2.3-0.733 0.833-1.283 1.317-1.65 1.45l2.6-0.65c1.867-0.633 2.967-1.4 3.3-2.3 0.367-1.033 0.15-1.6-0.65-1.7zm-0.05 1.35c0.7-0.233 0.7 0.066 0 0.9-0.233 0.267-0.684 0.6-1.35 1l-0.9 0.5 0.9-0.75c0.6-0.5 1.05-1.05 1.35-1.65z" fill="#BADDD2"/>
		<path d="m5.2-3.3c-0.3 0.6-0.75 1.15-1.35 1.65l-0.9 0.75 0.9-0.5c0.667-0.4 1.117-0.733 1.35-1 0.7-0.833 0.7-1.133 0-0.9z" fill="#fff"/>
	</g>
</symbol>
<symbol id="af" viewBox="0 -3.064 8.8 3.039">
	<g clip-rule="evenodd" fill-rule="evenodd">
		<path d="m4.4-0.5c-1.233 0.133-2.133 0.117-2.7-0.05-1.067-0.333-1.233-0.6-0.5-0.8l0.6 0.3c0.467 0.2 0.95 0.333 1.45 0.4l1.15 0.15zm-4.4-1c0 0.667 0.55 1.117 1.65 1.35 1.567 0.333 3.95 0 7.15-1-1.167 0.133-2.617-0.217-4.35-1.05-1.567-0.733-2.617-1-3.15-0.8-0.867 0.367-1.3 0.867-1.3 1.5z" fill="#BADDD2"/>
		<path d="m4.4-0.5l-1.15-0.15c-0.5-0.067-0.983-0.2-1.45-0.4l-0.6-0.3c-0.733 0.2-0.567 0.467 0.5 0.8 0.567 0.167 1.467 0.183 2.7 0.05z" fill="#fff"/>
	</g>
</symbol>
<symbol id="ag" viewBox="0 -4.65 8.134 4.665">
	<g clip-rule="evenodd" fill-rule="evenodd">
		<path d="m6.05-0.35c-0.2 0.033-0.517-0.05-0.95-0.25-0.367-0.133-0.833-0.433-1.4-0.9l-0.8-0.65 1 0.6c0.7 0.4 1.383 0.617 2.05 0.65 0.267 0.333 0.3 0.517 0.1 0.55zm0-2.65c-1.1-0.1-2.283-0.3-3.55-0.6-1.333-0.333-2.167-0.683-2.5-1.05l2.15 2.45c1.733 1.6 3.2 2.333 4.4 2.2 1.3-0.167 1.8-0.683 1.5-1.55-0.333-0.867-1-1.35-2-1.45z" fill="#BADDD2"/>
		<path d="m6.05-0.35c0.2-0.033 0.167-0.217-0.1-0.55-0.667-0.033-1.35-0.25-2.05-0.65l-1-0.6 0.8 0.65c0.566 0.467 1.033 0.767 1.4 0.9 0.433 0.2 0.75 0.283 0.95 0.25z" fill="#fff"/>
	</g>
</symbol>
<use transform="matrix(1 0 0 -1 82.5 56.3)" x="-72.95" y="-61.95" width="138.72" height="126.666" xlink:href="#ar"/>
</svg>